<svg width="330" height="397" fill="none" xmlns="http://www.w3.org/2000/svg"><mask id="a" style="mask-type:alpha" maskUnits="userSpaceOnUse" x="0" y="0" width="330" height="363"><path d="M226.481 11.927h.001c55.196 2.802 95.158 55.486 92.42 122.834l-.002.048c-2.183 60.807-46.235 106.999-101.133 108.596h-13.315c-10.627 0-19.242-8.616-19.242-19.243v-17.903c0-.74.599-1.34 1.339-1.34 19.921 0 28.978-24.876 13.719-37.684l-21.133-17.738c-11.676-9.801-28.708-9.794-40.376.018l-21.564 18.134c-15.077 12.678-6.112 37.27 13.588 37.27.614 0 1.112.498 1.112 1.113v48.232c.003 1.872-1.284 5.046-5.428 10.03-1.908 2.295-4.081 4.584-6.403 6.987l-.879.908c-1.981 2.045-4.106 4.239-5.919 6.324l-.051.059c-17.052 19.917-45.91 46.555-71.373 68.902C29.517 358.29 10 349.645 10 332.53V31.115c0-11.038 8.965-20.06 20.08-20.148 13.679-.107 27.255-.268 40.749-.427 52.701-.623 104.149-1.23 155.652 1.387z" fill="#7E87D1" stroke="#E9EBFF" stroke-width="20" stroke-linejoin="round"/></mask><g mask="url(#a)"><circle cx="39" cy="43" r="91" fill="url(#paint0_linear_434_656)" filter="url(#filter0_di_434_656)"/><path d="M365 18c0 83.395-67.605 151-151 151S63 101.395 63 18s67.605-151 151-151S365-65.395 365 18z" fill="url(#paint1_linear_434_656)" filter="url(#filter1_di_434_656)"/><circle cx="284.5" cy="233.5" r="131.5" fill="url(#paint2_linear_434_656)" filter="url(#filter2_di_434_656)"/><path d="M169.5 228.5C169.5 302.506 131.006 372 57 372S-77 312.006-77 238s59.994-134 134-134 112.5 50.494 112.5 124.5z" fill="url(#paint3_linear_434_656)" filter="url(#filter3_di_434_656)"/></g><g filter="url(#filter4_bdiiiii_434_656)"><path d="M83.938 152a13.25 13.25 0 0 0 8.786-3.333l53.176-47.116c7.191-6.373 18.009-6.373 25.2 0l53.176 47.116a13.25 13.25 0 0 0 8.786 3.333c12.194 0 17.913-15.081 8.786-23.167l-70.749-62.672c-7.192-6.37-18.006-6.37-25.198 0l-70.749 62.672C66.025 136.919 71.744 152 83.938 152z" fill="#D5D2F7" fill-opacity=".92" style="mix-blend-mode:screen"/><path d="M144.905 100.428L91.73 147.545a11.75 11.75 0 0 1-7.792 2.955c-10.814 0-15.885-13.374-7.791-20.544l70.749-62.673c6.623-5.867 16.585-5.867 23.208 0l70.749 62.673c8.094 7.17 3.023 20.544-7.791 20.544a11.75 11.75 0 0 1-7.792-2.955l-53.175-47.117c-7.759-6.876-19.431-6.876-27.19 0z" stroke="url(#paint4_linear_434_656)" stroke-width="3"/></g><defs><filter id="filter0_di_434_656" x="-96" y="-48" width="226" height="268" filterUnits="userSpaceOnUse" color-interpolation-filters="sRGB"><feFlood flood-opacity="0" result="BackgroundImageFix"/><feColorMatrix in="SourceAlpha" values="0 0 0 0 0 0 0 0 0 0 0 0 0 0 0 0 0 0 127 0" result="hardAlpha"/><feOffset dx="-31" dy="73"/><feGaussianBlur stdDeviation="6.5"/><feComposite in2="hardAlpha" operator="out"/><feColorMatrix values="0 0 0 0 0.895703 0 0 0 0 0.853178 0 0 0 0 0.853178 0 0 0 0.25 0"/><feBlend in2="BackgroundImageFix" result="effect1_dropShadow_434_656"/><feBlend in="SourceGraphic" in2="effect1_dropShadow_434_656" result="shape"/><feColorMatrix in="SourceAlpha" values="0 0 0 0 0 0 0 0 0 0 0 0 0 0 0 0 0 0 127 0" result="hardAlpha"/><feOffset dx="-59" dy="16"/><feGaussianBlur stdDeviation="12.9"/><feComposite in2="hardAlpha" operator="arithmetic" k2="-1" k3="1"/><feColorMatrix values="0 0 0 0 0.897998 0 0 0 0 0.897998 0 0 0 0 0.897998 0 0 0 0.45 0"/><feBlend in2="shape" result="effect2_innerShadow_434_656"/></filter><filter id="filter1_di_434_656" x="19" y="-133" width="346" height="388" filterUnits="userSpaceOnUse" color-interpolation-filters="sRGB"><feFlood flood-opacity="0" result="BackgroundImageFix"/><feColorMatrix in="SourceAlpha" values="0 0 0 0 0 0 0 0 0 0 0 0 0 0 0 0 0 0 127 0" result="hardAlpha"/><feOffset dx="-31" dy="73"/><feGaussianBlur stdDeviation="6.5"/><feComposite in2="hardAlpha" operator="out"/><feColorMatrix values="0 0 0 0 0.895703 0 0 0 0 0.853178 0 0 0 0 0.853178 0 0 0 0.25 0"/><feBlend in2="BackgroundImageFix" result="effect1_dropShadow_434_656"/><feBlend in="SourceGraphic" in2="effect1_dropShadow_434_656" result="shape"/><feColorMatrix in="SourceAlpha" values="0 0 0 0 0 0 0 0 0 0 0 0 0 0 0 0 0 0 127 0" result="hardAlpha"/><feOffset dx="-59" dy="16"/><feGaussianBlur stdDeviation="12.9"/><feComposite in2="hardAlpha" operator="arithmetic" k2="-1" k3="1"/><feColorMatrix values="0 0 0 0 0.897998 0 0 0 0 0.897998 0 0 0 0 0.897998 0 0 0 0.45 0"/><feBlend in2="shape" result="effect2_innerShadow_434_656"/></filter><filter id="filter2_di_434_656" x="109" y="102" width="307" height="349" filterUnits="userSpaceOnUse" color-interpolation-filters="sRGB"><feFlood flood-opacity="0" result="BackgroundImageFix"/><feColorMatrix in="SourceAlpha" values="0 0 0 0 0 0 0 0 0 0 0 0 0 0 0 0 0 0 127 0" result="hardAlpha"/><feOffset dx="-31" dy="73"/><feGaussianBlur stdDeviation="6.5"/><feComposite in2="hardAlpha" operator="out"/><feColorMatrix values="0 0 0 0 0.895703 0 0 0 0 0.853178 0 0 0 0 0.853178 0 0 0 0.25 0"/><feBlend in2="BackgroundImageFix" result="effect1_dropShadow_434_656"/><feBlend in="SourceGraphic" in2="effect1_dropShadow_434_656" result="shape"/><feColorMatrix in="SourceAlpha" values="0 0 0 0 0 0 0 0 0 0 0 0 0 0 0 0 0 0 127 0" result="hardAlpha"/><feOffset dx="-59" dy="16"/><feGaussianBlur stdDeviation="12.9"/><feComposite in2="hardAlpha" operator="arithmetic" k2="-1" k3="1"/><feColorMatrix values="0 0 0 0 0.897998 0 0 0 0 0.897998 0 0 0 0 0.897998 0 0 0 0.45 0"/><feBlend in2="shape" result="effect2_innerShadow_434_656"/></filter><filter id="filter3_di_434_656" x="-121" y="104" width="290.5" height="354" filterUnits="userSpaceOnUse" color-interpolation-filters="sRGB"><feFlood flood-opacity="0" result="BackgroundImageFix"/><feColorMatrix in="SourceAlpha" values="0 0 0 0 0 0 0 0 0 0 0 0 0 0 0 0 0 0 127 0" result="hardAlpha"/><feOffset dx="-31" dy="73"/><feGaussianBlur stdDeviation="6.5"/><feComposite in2="hardAlpha" operator="out"/><feColorMatrix values="0 0 0 0 0.895703 0 0 0 0 0.853178 0 0 0 0 0.853178 0 0 0 0.25 0"/><feBlend in2="BackgroundImageFix" result="effect1_dropShadow_434_656"/><feBlend in="SourceGraphic" in2="effect1_dropShadow_434_656" result="shape"/><feColorMatrix in="SourceAlpha" values="0 0 0 0 0 0 0 0 0 0 0 0 0 0 0 0 0 0 127 0" result="hardAlpha"/><feOffset dx="-59" dy="16"/><feGaussianBlur stdDeviation="12.9"/><feComposite in2="hardAlpha" operator="arithmetic" k2="-1" k3="1"/><feColorMatrix values="0 0 0 0 0.897998 0 0 0 0 0.897998 0 0 0 0 0.897998 0 0 0 0.45 0"/><feBlend in2="shape" result="effect2_innerShadow_434_656"/></filter><filter id="filter4_bdiiiii_434_656" x=".662" y="-8.617" width="315.676" height="230.617" filterUnits="userSpaceOnUse" color-interpolation-filters="sRGB"><feFlood flood-opacity="0" result="BackgroundImageFix"/><feGaussianBlur in="BackgroundImageFix" stdDeviation="35"/><feComposite in2="SourceAlpha" operator="in" result="effect1_backgroundBlur_434_656"/><feColorMatrix in="SourceAlpha" values="0 0 0 0 0 0 0 0 0 0 0 0 0 0 0 0 0 0 127 0" result="hardAlpha"/><feOffset dy="5"/><feGaussianBlur stdDeviation="5"/><feColorMatrix values="0 0 0 0 1 0 0 0 0 1 0 0 0 0 1 0 0 0 0.6 0"/><feBlend in2="effect1_backgroundBlur_434_656" result="effect2_dropShadow_434_656"/><feBlend in="SourceGraphic" in2="effect2_dropShadow_434_656" result="shape"/><feColorMatrix in="SourceAlpha" values="0 0 0 0 0 0 0 0 0 0 0 0 0 0 0 0 0 0 127 0" result="hardAlpha"/><feOffset dy="8"/><feGaussianBlur stdDeviation="7"/><feComposite in2="hardAlpha" operator="arithmetic" k2="-1" k3="1"/><feColorMatrix values="0 0 0 0 1 0 0 0 0 1 0 0 0 0 1 0 0 0 0.5 0"/><feBlend mode="overlay" in2="shape" result="effect3_innerShadow_434_656"/><feColorMatrix in="SourceAlpha" values="0 0 0 0 0 0 0 0 0 0 0 0 0 0 0 0 0 0 127 0" result="hardAlpha"/><feOffset dy="-10"/><feGaussianBlur stdDeviation="6"/><feComposite in2="hardAlpha" operator="arithmetic" k2="-1" k3="1"/><feColorMatrix values="0 0 0 0 0 0 0 0 0 0 0 0 0 0 0 0 0 0 0.25 0"/><feBlend mode="overlay" in2="effect3_innerShadow_434_656" result="effect4_innerShadow_434_656"/><feColorMatrix in="SourceAlpha" values="0 0 0 0 0 0 0 0 0 0 0 0 0 0 0 0 0 0 127 0" result="hardAlpha"/><feOffset dy="2"/><feGaussianBlur stdDeviation="2"/><feComposite in2="hardAlpha" operator="arithmetic" k2="-1" k3="1"/><feColorMatrix values="0 0 0 0 1 0 0 0 0 1 0 0 0 0 1 0 0 0 0.7 0"/><feBlend mode="overlay" in2="effect4_innerShadow_434_656" result="effect5_innerShadow_434_656"/><feColorMatrix in="SourceAlpha" values="0 0 0 0 0 0 0 0 0 0 0 0 0 0 0 0 0 0 127 0" result="hardAlpha"/><feOffset dy="-10"/><feGaussianBlur stdDeviation="4"/><feComposite in2="hardAlpha" operator="arithmetic" k2="-1" k3="1"/><feColorMatrix values="0 0 0 0 0 0 0 0 0 0 0 0 0 0 0 0 0 0 0.15 0"/><feBlend mode="overlay" in2="effect5_innerShadow_434_656" result="effect6_innerShadow_434_656"/><feColorMatrix in="SourceAlpha" values="0 0 0 0 0 0 0 0 0 0 0 0 0 0 0 0 0 0 127 0" result="hardAlpha"/><feOffset dy="9"/><feGaussianBlur stdDeviation="3.5"/><feComposite in2="hardAlpha" operator="arithmetic" k2="-1" k3="1"/><feColorMatrix values="0 0 0 0 1 0 0 0 0 1 0 0 0 0 1 0 0 0 0.25 0"/><feBlend mode="overlay" in2="effect6_innerShadow_434_656" result="effect7_innerShadow_434_656"/></filter><linearGradient id="paint0_linear_434_656" x1="62" y1="-10.5" x2="-27" y2="113.5" gradientUnits="userSpaceOnUse"><stop stop-color="#FFF1EE"/><stop offset="1" stop-color="#FEA596"/></linearGradient><linearGradient id="paint1_linear_434_656" x1="166" y1="-40" x2="193.5" y2="151.5" gradientUnits="userSpaceOnUse"><stop stop-color="#E8F4FE"/><stop offset="1" stop-color="#62BFFF"/></linearGradient><linearGradient id="paint2_linear_434_656" x1="284.5" y1="102" x2="224.53" y2="303.585" gradientUnits="userSpaceOnUse"><stop stop-color="#FFEBF7"/><stop offset="1" stop-color="#F976C6"/></linearGradient><linearGradient id="paint3_linear_434_656" x1="57" y1="104" x2="170.622" y2="338.037" gradientUnits="userSpaceOnUse"><stop stop-color="#D5CCFF"/><stop offset="1" stop-color="#6450CF"/></linearGradient><linearGradient id="paint4_linear_434_656" x1="158" y1="48.5" x2="158.5" y2="152" gradientUnits="userSpaceOnUse"><stop stop-color="#BECBF9"/><stop offset="0" stop-color="#EFF3FF"/><stop offset="1" stop-color="#FDFDFD"/></linearGradient></defs></svg>