<svg xmlns="http://www.w3.org/2000/svg" enable-background="new 0 0 110 110" viewBox="0 0 110 110"><path fill="#9dd7ff" d="M9.9 73.2s-4.3 6.6-.6 6.7c2.2.1 10.7-4.5 21.3-4.9 1.1 0-.9-4.1-.9-4.1L9.9 73.2z" class="color113ffb svgShape"/><path fill="#6e6e6e" d="M30.8 73.7c-.3-1.2-1.1-2.8-1.1-2.8L9.9 73.2s-.1.2-.3.5h21.2z" class="color1000dd svgShape"/><path fill="#080808" d="M86.3 51.4c0 2.9-2.4 5.3-5.3 5.3s-5.3-2.4-5.3-5.3 2.4-5.3 5.3-5.3 5.3 2.4 5.3 5.3z" class="color001466 svgShape"/><path fill="#080808" d="M77.2 44.6c0 4-3.2 7.2-7.2 7.2s-7.2-3.2-7.2-7.2 3.2-7.2 7.2-7.2c4 .1 7.2 3.3 7.2 7.2z" class="color001466 svgShape"/><path fill="#eef9fc" stroke="#333" stroke-linecap="round" stroke-linejoin="round" stroke-miterlimit="10" stroke-width=".5" d="m74.4 77.7-.3 1.1-1.1 3.7c-1.2 3-3.7 4.7-6.6 3.1-2.4-1.3-9.2-5.9-9.2-5.9-5.2-1.8-4.6-4.2-4.6-4.2s-1.2-.4-1.6-.4c-.5 0-1.8.3-1.9-.1-.1-.3 1.7-.8 1.7-.8l2.2-.1s-.6-.3-1.8-.6c-1.2-.3-2.9.3-3.1-.1-.4-.7 2.2-.8 2.2-.8l2.5-.2s-1.5-.3-2.2-.5c-.7-.2-2.9.8-3.1.2-.2-.6 1.4-1 2.5-1.2 1.1-.1 3.4.2 3.4.2s-.5-1.2-2.3-1.9c-1.8-.7-1.2-1.7-1.2-1.7l3.3 1.5c.6.3 1.2.8 1.5 1.4l2.1 3.5c1.2 1.4 8.4 4.7 8.4 4.7 1.1-4.6 2.1-8.4 3.2-11.3 1.1-2.8 2.4-4.7 3.9-5.4 3.5-2.3 8-3.5 12.2-2.6 2.7.6 5.5 1.3 7 2.4 3 2.2 8.3 10.1 11.7 15.4" class="colorffffff svgShape colorStroke001466 svgStroke"/><path fill="#70dffd" d="M55.1 79.2c-.1.1-.3.2-.5.2s-.5 0-.7-.1c-.3-.2-.7-.4-.9-.7-.2-.3-.2-.6-.2-.9v-.1l-.5-.4-.8.8c-1 .9-2.3 2.2-2.5 2.2-.3 0-2.1-1.4-3.9-3.1l.9-1h.1c.3 0 .6-.1.9-.2.3-.2.6-.5.7-.9.1-.2.2-.4.1-.7 0-.2-.1-.3-.2-.5l-.6-.6c-.4-.2-.9-.3-1.3 0-.9.6-.9 1.4-.9 1.7l-1 1c-1.7-1.7-3.3-3.3-3.4-3.9-.1-.3 2.9-3.5 4.8-5.4 1-1 1.9-1.8 2.2-1.9.5-.1 2.3 1.3 4.1 3l.5-.6c-.1-.4-.1-1.2.9-1.7.4-.2.9-.2 1.3 0 .2.1.4.3.6.6.1.1.2.3.2.5s0 .5-.1.7c-.2.3-.4.7-.7.9-.3.2-.6.2-.9.2h-.1l-.5.6c1.9 1.9 3.5 3.7 3.4 4 0 .2-1.4 1.7-2.8 3.2l.5.4c.4-.1 1.2-.1 1.7.9.2.4.2.9 0 1.3 0 .1-.2.3-.4.5z" class="colorfdb870 svgShape"/><path fill="none" stroke="#333" stroke-linecap="round" stroke-linejoin="round" stroke-miterlimit="10" stroke-width=".5" d="m74 69.8.7 1.2s-5.2 6.6 4.1 8.7l5.3 4.2" class="colorStroke001466 svgStroke"/><path fill="#eef9fc" stroke="#333" stroke-linecap="round" stroke-linejoin="round" stroke-miterlimit="10" stroke-width=".5" d="M72 58.1c-13.5-2.1-4.9-13.7-1.4-15.4 2.5-1.2 7.2-.5 10.6 3.7 3.5 4.2-4.9 2.4-2.2 12.9-1.9 0-2.9 3.4-3.9 6.1-.1 0 .6-6.7-3.1-7.3z" class="colorffffff svgShape colorStroke001466 svgStroke"/><path fill="#080808" d="M85.8 44.5c0 4-3.2 7.2-7.2 7.2s-7.2-3.2-7.2-7.2 3.2-7.2 7.2-7.2 7.2 3.2 7.2 7.2z" class="color001466 svgShape"/><path fill="none" stroke="#333" stroke-linecap="round" stroke-linejoin="round" stroke-miterlimit="10" stroke-width=".5" d="M68.4 53.8h1.3M69.2 49.3s-1.1 1.6-1.2 2.1c0 .1.8 0 1.3-.1" class="colorStroke001466 svgStroke"/><path fill="#eef9fc" stroke="#333" stroke-linecap="round" stroke-linejoin="round" stroke-miterlimit="10" stroke-width=".5" d="M96.2 82.1 90 73.8c-.6-.8-1.6-1.3-2.6-1.4h0M76.9 51.4c.4-.6 1-1 1.7-1.1.3 0 .7 0 1 .1.6.3.9 1 .8 1.6s-.5 1.2-1 1.5-1.2.5-1.8.5" class="colorffffff svgShape colorStroke001466 svgStroke"/><path fill="none" stroke="#333" stroke-linecap="round" stroke-linejoin="round" stroke-miterlimit="10" stroke-width=".5" d="m78.7 52-.4.4" class="colorStroke001466 svgStroke"/><path fill="#080808" d="M71.2 49.5c-.1.3-.3.5-.6.5s-.4-.2-.4-.5c.1-.3.3-.5.6-.5.3.1.5.3.4.5zM68 49.1c-.1.3-.3.5-.6.5s-.4-.2-.4-.5c.1-.3.3-.5.6-.5.3.1.5.3.4.5z" class="color001466 svgShape"/><path fill="#eef9fc" stroke="#333" stroke-linecap="round" stroke-linejoin="round" stroke-miterlimit="10" stroke-width=".5" d="M70.5 48.1s1-.6 1.8.7M67.2 47.4s1-.6 1.8.7M59.3 75.9s-1.6-1-1.4-3.1c.1-1.3-2.6-4.9-3.8-3.6-.5.6 1.5 1.1 1.3 3.2-.2 3.1 1.8 3.5 1.8 3.5" class="colorffffff svgShape colorStroke001466 svgStroke"/><path fill="none" stroke="#333" stroke-linecap="round" stroke-linejoin="round" stroke-miterlimit="10" stroke-width=".5" d="M9.9 73.2s-4.3 6.6-.6 6.7c2.2.1 10.7-4.5 21.3-4.9 1.1 0-.9-4.1-.9-4.1L9.9 73.2z" class="colorStroke001466 svgStroke"/><path fill="none" stroke="#333" stroke-linecap="round" stroke-linejoin="round" stroke-miterlimit="10" stroke-width=".5" d="M21.1 46.9C13 46 4.4 54.7 9.8 73.3L29.5 71l-.7-3.8s2.2-1.5 2.3-4.1c.2-3.1-3-4.8-3-4.8l.4-1.5" class="colorStroke001466 svgStroke"/><path fill="#eef9fc" stroke="#333" stroke-linecap="round" stroke-linejoin="round" stroke-miterlimit="10" stroke-width=".5" d="M26.6 68.8c3.7-.4 4.1 2 4.1 2s-1.4-.8-3 0c-2.5 1.2-3.4-.3-3.4-.3" class="colorffffff svgShape colorStroke001466 svgStroke"/><circle cx="19.3" cy="37.6" r="6.3" fill="#080808" class="color001466 svgShape" transform="rotate(-45.001 19.313 37.618)"/><circle cx="27.6" cy="38.9" r="6.3" fill="#080808" class="color001466 svgShape" transform="rotate(-45.001 27.628 38.942)"/><circle cx="27.6" cy="30.1" r="6.3" fill="#080808" class="color001466 svgShape" transform="rotate(-45.001 27.628 30.114)"/><path fill="#eef9fc" stroke="#333" stroke-linecap="round" stroke-linejoin="round" stroke-miterlimit="10" stroke-width=".5" d="M20.5 39c.6 2.7-.8 7.9-.8 7.9 2.3 0 4.2 1.8 5.9 4.4-.6-2.9-.3-7.5 1.6-8.1 0 0 4.9 2.1 5-4.9s-6.5-10.1-6.5-10.1-4.7 4.2-3.8 8.5L20.5 39z" class="colorffffff svgShape colorStroke001466 svgStroke"/><circle cx="20.6" cy="30.1" r="6.3" fill="#080808" class="color001466 svgShape" transform="rotate(-45.001 20.64 30.114)"/><path fill="#eef9fc" stroke="#333" stroke-linecap="round" stroke-linejoin="round" stroke-miterlimit="10" stroke-width=".5" d="M21.5 38.9c-1.3-.1-2.4-1.1-2.6-2.2-.1-1.1.8-1.9 2.1-1.8 1.3.1 2.4 1.1 2.6 2.2M47.9 51.8l2.1-3.5c.4-.6.9-1.1 1.5-1.4l3.3-1.5s.6 1-1.2 1.7c-1.8.7-2.3 1.9-2.3 1.9s2.3-.4 3.4-.2c1.1.1 2.7.6 2.5 1.2-.2.6-2.5-.5-3.1-.2-.7.2-2.2.5-2.2.5l2.5.2s2.6.2 2.2.8c-.2.3-1.9-.2-3.1.1-1.2.3-1.8.6-1.8.6l2.2.1s1.8.5 1.7.8c-.1.4-1.4.1-1.9.1-.4 0-1.6.4-1.6.4s.6 2.3-4.6 4.2l-11.3 8.3c-1.7 1.2-3.9 1.1-5.5-.1" class="colorffffff svgShape colorStroke001466 svgStroke"/><path fill="#080808" d="m31.1 62.6 2 4c-1.1 0-2.2-.3-3.1-1l.5-1 .6-2z" class="color001466 svgShape"/><path fill="#9dd7ff" d="M58 36.9c.1.1.3.2.4.3.1.2.1.4.1.7 0 .4-.1.8-.4 1.1-.2.2-.4.4-.7.5h-.1l-.3.6c.3.2.7.3 1 .5 1.2.6 2.9 1.4 2.9 1.6.1.3-.6 2.5-1.5 4.7l-1.3-.5v-.1c-.1-.3-.3-.5-.5-.7-.3-.2-.7-.3-1.1-.4-.2 0-.5 0-.7.1-.1.1-.2.2-.3.4-.1.2-.3.5-.3.8-.1.4.1.9.4 1.2.9.7 1.6.4 1.9.2l1.3.5c-.9 2.2-1.9 4.3-2.4 4.6-.2.2-4.3-1.5-6.7-2.5-1.3-.6-2.4-1.1-2.5-1.4-.3-.4.4-2.6 1.4-4.9l-.7-.3c-.3.2-1.1.5-1.9-.2-.3-.3-.5-.8-.4-1.2 0-.3.2-.5.3-.8.1-.1.2-.3.3-.4.2-.1.4-.1.7-.1.4 0 .8.1 1.1.4.2.2.4.4.5.7v.1l.7.3c1.1-2.4 2.2-4.6 2.5-4.6.2 0 2.1.7 4 1.5l.2-.6c-.2-.3-.5-1.1.2-1.9.3-.3.8-.5 1.2-.4.2-.1.5.1.7.2z" class="color113ffb svgShape"/><path fill="#b4a6fe" d="M37.5 82c-.1.1-.3.2-.4.2-.2 0-.4 0-.6-.1-.3-.2-.6-.4-.8-.7-.2-.2-.2-.5-.2-.8v-.1L35 80l-.7.7c-.9.9-2.2 2.1-2.4 2.1-.3 0-2-1.4-3.7-3l.9-1h.1c.3 0 .6-.1.8-.2.3-.2.5-.5.7-.8.1-.2.2-.4.1-.6 0-.2-.1-.3-.2-.4-.2-.2-.3-.4-.6-.5-.4-.2-.8-.3-1.2 0-.9.5-.9 1.3-.8 1.7l-.9 1c-1.7-1.6-3.1-3.2-3.3-3.7-.1-.2 2.8-3.3 4.5-5.1 1-1 1.8-1.7 2.1-1.8.5-.1 2.2 1.3 3.9 2.9l.5-.5c-.1-.4-.1-1.1.8-1.7.4-.2.8-.2 1.2 0 .2.1.4.3.6.5.1.1.2.3.2.4 0 .2 0 .4-.1.6-.2.3-.4.6-.7.8-.2.2-.5.2-.8.2h-.1l-.5.5c1.8 1.8 3.3 3.5 3.3 3.8 0 .2-1.3 1.6-2.7 3.1l.4.4c.4-.1 1.1-.1 1.7.8.2.4.2.8 0 1.2-.2.3-.4.4-.6.6z" class="colorff7757 svgShape"/><path fill="#eef9fc" stroke="#333" stroke-linecap="round" stroke-linejoin="round" stroke-miterlimit="10" stroke-width=".5" d="m25.3 48.3 8.9 11 10.6-5.6s1.9-1 1.7-3.1c-.1-1.3 2.6-4.9 3.8-3.6.5.6-1.5 1.1-1.3 3.2.2 3.1-1.8 3.5-1.8 3.5M41.5 55.4l2.3 4.4M8.6 58l-1.5 7.4c-.4 2.5 1.2 4.8 3.7 5.2L25.3 73l.8.6c1.4.8 1.5-.2 1.5-.2.6.4.9-.3.9-.3.9.5.9-.5.9-.5s.7.5 1 .3c.8-.8-.6-2.9-3.3-3.9-3.2-1.2-12.9-4.1-12.9-4.1l1.9-8.3c.2-.7.6-1.4 1.1-2l.2-.2" class="colorffffff svgShape colorStroke001466 svgStroke"/><path fill="none" stroke="#333" stroke-linecap="round" stroke-linejoin="round" stroke-miterlimit="10" stroke-width=".5" d="M26.8 72.3c.4.3.6.6.8 1.1M27.7 72c.4.3.6.6.8 1.1M28.6 71.5c.4.3.6.6.8 1.1M20.7 36.5s.5-.1.6.4" class="colorStroke001466 svgStroke"/><path fill="#080808" d="M27.9 40c.5.1 1.6.2 2.6-.3.1-.1.2.1.2.2-.1.5-.6 1.4-1.6 1.4s-1.3-.7-1.3-1.1c-.1-.1-.1-.2.1-.2z" class="color001466 svgShape"/><path fill="#eef9fc" stroke="#333" stroke-linecap="round" stroke-linejoin="round" stroke-miterlimit="10" stroke-width=".5" d="M25.2 42.6c.6.3 1.2.5 2 .6M29.2 36.4c.2.3.3.7.5 1 .1.2.2.4.1.6-.1.1-.3.2-.4.2" class="colorffffff svgShape colorStroke001466 svgStroke"/><path fill="#080808" d="M27.8 36.2c.1.3-.1.6-.4.6-.3 0-.5-.3-.6-.6-.1-.4.1-.6.4-.6.3 0 .5.2.6.6zM30.9 35.4c.1.3-.1.6-.4.6-.3 0-.5-.3-.6-.6-.1-.4.1-.6.4-.6.2-.1.5.2.6.6z" class="color001466 svgShape"/><path fill="none" stroke="#333" stroke-linecap="round" stroke-linejoin="round" stroke-miterlimit="10" stroke-width=".5" d="M26 35.6c.1-.7.8-1.1 1.4-1M29 34.4c.2-.6.9-1 1.6-.7" class="colorStroke001466 svgStroke"/><path fill="#080808" d="M96.5 82.3c-.7.4-1.5.7-2.3 1L91 75.1l5.5 7.2zM73.3 74.3c-.8 1.8-.8 3.8.4 5.9l.8-2.4c-1.2-.7-1.3-2-1.2-3.5zM14.9 61.7c.3 1.5 1.2 2.9 2.6 3.7l1.4.8-4.6-1.4.6-3.1z" class="color001466 svgShape"/></svg>