<svg xmlns="http://www.w3.org/2000/svg" enable-background="new 0 0 5000 5000" viewBox="0 0 5000 5000"><circle cx="2500" cy="2499.998" r="2013" fill="#fff"/><path fill="#262525" d="M2500,4519.998c-137.05,0-274.016-13.808-407.093-41.039
					c-129.698-26.54-257.274-66.142-379.184-117.706c-119.695-50.626-235.14-113.287-343.128-186.243
					c-106.961-72.262-207.542-155.249-298.95-246.656c-91.407-91.407-174.394-191.988-246.656-298.949
					c-72.956-107.989-135.617-223.435-186.244-343.129c-51.563-121.909-91.165-249.485-117.706-379.185
					C493.807,2774.014,480,2637.048,480,2499.998s13.807-274.016,41.039-407.093c26.541-129.698,66.142-257.274,117.706-379.184
					c50.626-119.695,113.288-235.14,186.244-343.128c72.262-106.961,155.249-207.542,246.656-298.95
					c91.408-91.407,191.989-174.394,298.95-246.656c107.988-72.956,223.434-135.617,343.128-186.244
					c121.91-51.563,249.486-91.165,379.184-117.706c133.078-27.232,270.043-41.039,407.093-41.039s274.016,13.807,407.093,41.039
					c129.699,26.541,257.275,66.142,379.185,117.706c119.694,50.626,235.14,113.288,343.129,186.244
					c106.961,72.262,207.542,155.249,298.949,246.656c91.407,91.408,174.395,191.989,246.656,298.95
					c72.956,107.988,135.617,223.434,186.243,343.128c51.564,121.91,91.166,249.486,117.706,379.184
					c27.231,133.078,41.039,270.043,41.039,407.093s-13.808,274.016-41.039,407.093c-26.54,129.699-66.142,257.275-117.706,379.185
					c-50.626,119.694-113.287,235.14-186.243,343.129c-72.262,106.961-155.249,207.542-246.656,298.949
					s-191.988,174.395-298.949,246.656c-107.989,72.956-223.435,135.617-343.129,186.243
					c-121.909,51.564-249.485,91.166-379.185,117.706C2774.016,4506.19,2637.05,4519.998,2500,4519.998z M2500,493.998
					c-1106.112,0-2006,899.888-2006,2006s899.888,2006,2006,2006s2006-899.888,2006-2006S3606.112,493.998,2500,493.998z"/><g><path fill="#262525" d="M4024.024,3492.621c-1.305,0-2.624-0.364-3.8-1.127c-3.245-2.103-4.17-6.437-2.067-9.681
					c189.457-292.351,289.599-631.856,289.599-981.815c0-996.8-810.956-1807.756-1807.756-1807.756
					c-184.135,0-365.765,27.582-539.844,81.979c-3.69,1.155-7.617-0.903-8.769-4.593c-1.153-3.69,0.903-7.616,4.593-8.77
					c175.432-54.82,358.467-82.617,544.02-82.617c123.6,0,247.123,12.453,367.14,37.011
					c116.971,23.936,232.026,59.651,341.972,106.154c107.948,45.658,212.063,102.17,309.454,167.966
					c96.464,65.17,187.174,140.012,269.61,222.449s157.279,173.146,222.448,269.61c65.796,97.391,122.308,201.506,167.966,309.455
					c46.504,109.945,82.219,225.001,106.154,341.972c24.56,120.017,37.012,243.541,37.012,367.14
					c0,352.667-100.92,694.806-291.851,989.429C4028.565,3491.495,4026.318,3492.621,4024.024,3492.621z"/><path fill="#262525" d="M1076.159,3632.284c-2.066,0-4.112-0.91-5.494-2.656
					c-124.596-157.439-221.612-332.81-288.354-521.237c-69.054-194.956-104.067-399.648-104.067-608.393
					c0-136.166,15.089-271.932,44.848-403.529c28.952-128.026,72.017-253.188,128-372.01
					c54.97-116.671,122.705-227.915,201.325-330.644c78.045-101.979,167.146-196.002,264.824-279.458
					c2.94-2.513,7.358-2.164,9.869,0.775c2.511,2.939,2.165,7.357-0.774,9.869c-402.975,344.298-634.092,845.465-634.092,1374.997
					c0,411.428,134.652,799.043,389.399,1120.942c2.399,3.031,1.887,7.434-1.145,9.833
					C1079.212,3631.791,1077.68,3632.284,1076.159,3632.284z"/></g><g><path fill="#cfcfcf" d="M2563.828,3625.318h-240.47c-108.661,0-196.748-88.087-196.748-196.749v-870.066
							c0-108.661,88.087-196.749,196.748-196.749h240.47c108.662,0,196.749,88.087,196.749,196.749v870.066
							C2760.577,3537.231,2672.49,3625.318,2563.828,3625.318z"/><path fill="#262525" d="M2563.828,3632.318h-240.47c-112.347,0-203.749-91.401-203.749-203.748v-870.066
							c0-112.347,91.401-203.749,203.749-203.749h240.47c112.348,0,203.749,91.401,203.749,203.749v870.066
							C2767.577,3540.917,2676.176,3632.318,2563.828,3632.318z M2323.358,2368.755c-104.628,0-189.749,85.121-189.749,189.749
							v870.066c0,104.627,85.121,189.748,189.749,189.748h240.47c104.628,0,189.749-85.121,189.749-189.748v-870.066
							c0-104.628-85.121-189.749-189.749-189.749H2323.358z"/><path fill="#262525" d="M2629.29,2678.467v-305.513c-20.483-7.228-42.504-11.199-65.461-11.199h-240.47
						c-108.662,0-196.749,88.088-196.749,196.749v705.38C2416.631,3263.884,2629.29,2996.874,2629.29,2678.467z"/><g><path fill="#cfcfcf" d="M2058.842,3091.911c-240.263,0-435.034-194.771-435.034-435.033v-837.274
							c0-313.91,254.474-568.384,568.384-568.384c313.911,0,568.385,254.474,568.385,568.384v570.572
							C2760.577,2777.733,2446.399,3091.911,2058.842,3091.911z"/><path fill="#262525" d="M2058.842,3098.911c-59.671,0-117.561-11.688-172.062-34.74
							c-52.638-22.264-99.91-54.135-140.503-94.729c-40.593-40.593-72.465-87.865-94.729-140.503
							c-23.052-54.501-34.74-112.391-34.74-172.062v-837.274c0-77.673,15.214-153.027,45.22-223.968
							c28.98-68.517,70.466-130.05,123.306-182.89c52.84-52.84,114.374-94.327,182.891-123.307
							c70.941-30.005,146.294-45.219,223.968-45.219s153.027,15.214,223.968,45.219c68.518,28.98,130.051,70.467,182.891,123.307
							c52.84,52.84,94.326,114.373,123.307,182.89c30.006,70.941,45.22,146.294,45.22,223.968v570.572
							c0,95.676-18.74,188.493-55.699,275.874c-35.696,84.396-86.798,160.19-151.885,225.277
							c-65.086,65.087-140.881,116.188-225.277,151.886C2247.334,3080.172,2154.518,3098.911,2058.842,3098.911z M2192.192,1258.22
							c-309.548,0-561.384,251.836-561.384,561.384v837.274c0,236.019,192.015,428.033,428.034,428.033
							c383.078,0,694.735-311.657,694.735-694.735v-570.572C2753.577,1510.056,2501.741,1258.22,2192.192,1258.22z"/><path fill="#262525" d="M2126.603,2230.06c-1.193,0-2.402-0.305-3.509-0.947c-3.343-1.941-4.479-6.226-2.539-9.569
								c0.848-1.46,21.307-36.017,68.627-58.55c27.651-13.167,58.775-19.467,92.522-18.714
								c41.757,0.928,87.644,12.726,136.386,35.066c3.515,1.611,5.058,5.766,3.447,9.28c-1.61,3.514-5.766,5.059-9.28,3.447
								c-83.865-38.438-158.921-44.123-217.056-16.438c-43.449,20.69-62.353,52.62-62.539,52.94
								C2131.364,2228.811,2129.016,2230.06,2126.603,2230.06z"/><path fill="#262525" d="M2305.869,2196.097c0,35.013-20.554,38.379-45.908,38.379s-45.908-3.366-45.908-38.379
								c0-46.877,20.554-46.877,45.908-46.877S2305.869,2149.79,2305.869,2196.097z"/><path fill="#262525" d="M1892.704,2230.06c-2.41,0-4.754-1.245-6.055-3.477c-0.286-0.484-19.661-32.785-63.279-53.297
								c-58.024-27.287-132.825-21.481-216.321,16.787c-3.514,1.61-7.669,0.068-9.28-3.447c-1.611-3.514-0.068-7.669,3.447-9.28
								c48.742-22.34,94.629-34.138,136.386-35.066c33.736-0.756,64.87,5.546,92.521,18.714c47.32,22.533,67.779,57.09,68.627,58.55
								c1.941,3.343,0.805,7.627-2.539,9.569C1895.106,2229.754,1893.897,2230.06,1892.704,2230.06z"/><path fill="#262525" d="M1713.438,2196.097c0,35.013,20.554,38.379,45.908,38.379
								c25.354,0,45.908-3.366,45.908-38.379c0-46.877-20.554-46.877-45.908-46.877
								C1733.991,2149.219,1713.438,2149.79,1713.438,2196.097z"/><path fill="#262525" d="M1965.797,2543.854c-17.125,0-32.721-0.384-42.484-1.478
							c-10.367-1.16-19.567-6.373-25.906-14.68c-6.351-8.322-8.956-18.598-7.335-28.932
							c21.378-136.267,84.882-361.101,85.521-363.356c1.054-3.719,4.922-5.879,8.643-4.827c3.72,1.054,5.88,4.923,4.827,8.643
							c-0.637,2.247-63.913,226.279-85.16,361.709c-1.023,6.524,0.622,13.012,4.633,18.269c4,5.24,9.8,8.529,16.334,9.26
							c31.157,3.489,129.038-0.713,130.023-0.756c3.858-0.188,7.129,2.826,7.297,6.689c0.168,3.862-2.827,7.129-6.689,7.297
							C2052.667,2541.816,2005.204,2543.854,1965.797,2543.854z"/><path fill="#262525" d="M2004.914,2750.107c-11.023,0-22.015-0.692-32.936-2.078
							c-37.586-4.769-74.377-17.807-109.353-38.751c-3.317-1.986-4.396-6.285-2.409-9.603c1.986-3.317,6.286-4.394,9.602-2.409
							c75.345,45.12,145.022,42.729,190.208,32.781c48.959-10.781,80.248-32.304,80.558-32.52c3.172-2.209,7.534-1.429,9.745,1.743
							c2.209,3.173,1.429,7.535-1.744,9.745c-1.36,0.947-33.905,23.332-85.549,34.703
							C2043.714,2747.975,2024.266,2750.107,2004.914,2750.107z"/><g><path fill="#262525" d="M2322.872,2063.475H2197.05c-17.171,0-31.091-13.92-31.091-31.091
								c0-17.171,13.92-31.091,31.091-31.091h125.822c17.171,0,31.091,13.92,31.091,31.091
								C2353.963,2049.555,2340.043,2063.475,2322.872,2063.475z"/><path fill="#262525" d="M2322.872,2070.475H2197.05c-21.003,0-38.091-17.087-38.091-38.091
								s17.087-38.091,38.091-38.091h125.822c21.003,0,38.091,17.088,38.091,38.091S2343.875,2070.475,2322.872,2070.475z
								 M2197.05,2008.292c-13.284,0-24.091,10.807-24.091,24.091c0,13.284,10.807,24.091,24.091,24.091h125.822
								c13.284,0,24.091-10.807,24.091-24.091c0-13.284-10.807-24.091-24.091-24.091H2197.05z"/></g><g><path fill="#262525" d="M1835.13,2063.475h-125.822c-17.171,0-31.091-13.92-31.091-31.091
								c0-17.171,13.92-31.091,31.091-31.091h125.822c17.171,0,31.091,13.92,31.091,31.091
								C1866.221,2049.555,1852.301,2063.475,1835.13,2063.475z"/><path fill="#262525" d="M1835.13,2070.475h-125.822c-21.003,0-38.091-17.087-38.091-38.091
								s17.087-38.091,38.091-38.091h125.822c21.003,0,38.091,17.088,38.091,38.091S1856.133,2070.475,1835.13,2070.475z
								 M1709.308,2008.292c-13.284,0-24.091,10.807-24.091,24.091c0,13.284,10.807,24.091,24.091,24.091h125.822
								c13.284,0,24.091-10.807,24.091-24.091c0-13.284-10.807-24.091-24.091-24.091H1709.308z"/></g><g><path fill="#262525" d="M2741.887,1186.663c-14.161,47.632-102.846,204.569-150.479,190.407
									c-47.632-14.161-36.175-194.058-22.013-241.69c14.161-47.632,64.255-74.766,111.888-60.605
									C2728.915,1088.936,2756.049,1139.031,2741.887,1186.663z"/><path fill="#262525" d="M2597.699,1384.965c-2.863,0-5.626-0.395-8.286-1.185
									c-13.539-4.025-23.727-18.119-30.279-41.89c-5.164-18.738-8.16-43.278-8.902-72.938
									c-1.354-54.083,5.269-111.399,12.453-135.567c7.382-24.83,23.991-45.298,46.769-57.635
									c22.775-12.337,48.993-15.066,73.824-7.685c24.829,7.382,45.298,23.991,57.636,46.769
									c12.337,22.777,15.066,48.995,7.685,73.824c0,0,0,0,0,0c-7.186,24.168-32.952,75.793-63.633,120.351
									c-16.826,24.437-32.742,43.355-47.305,56.227C2622.814,1378.359,2609.416,1384.965,2597.699,1384.965z M2655.529,1078.005
									c-13.616,0-27.1,3.388-39.408,10.055c-19.489,10.556-33.701,28.07-40.017,49.314c-6.727,22.624-13.18,79.229-11.878,131.227
									c1.471,58.724,12.378,96.765,29.177,101.759c16.801,4.996,46.717-20.909,80.03-69.291
									c29.497-42.838,55.016-93.775,61.744-116.401l0,0c6.316-21.245,3.981-43.678-6.575-63.167
									c-10.557-19.489-28.07-33.701-49.315-40.017C2671.461,1079.158,2663.473,1078.005,2655.529,1078.005z M2741.888,1186.663
									h0.01H2741.888z"/><g><path fill="#262525" d="M2800.583,1403.695c-47.725,13.845-227.694,24.11-241.539-23.616
									s143.676-135.368,191.401-149.213c47.725-13.846,97.638,13.62,111.483,61.345
									C2875.774,1339.937,2848.309,1389.849,2800.583,1403.695z"/><path fill="#262525" d="M2685.365,1422.258c-6.167,0-12.343-0.092-18.479-0.286
									c-29.655-0.939-54.175-4.097-72.877-9.386c-23.727-6.71-37.753-16.991-41.688-30.557
									c-3.936-13.566,2.41-29.757,18.862-48.123c12.969-14.477,31.992-30.267,56.54-46.931
									c44.762-30.385,96.557-55.808,120.771-62.833c24.876-7.217,51.076-4.315,73.771,8.173
									c22.694,12.488,39.168,33.066,46.385,57.944c14.898,51.356-14.763,105.259-66.118,120.157
									C2781.065,1416.646,2733.547,1422.258,2685.365,1422.258z M2775.633,1234.264c-7.765,0-15.573,1.101-23.237,3.324
									c-22.668,6.576-73.772,31.756-116.809,60.97c-48.603,32.992-74.703,62.738-69.82,79.57
									c4.883,16.832,42.851,27.991,101.563,29.851c51.991,1.644,108.635-4.432,131.303-11.007
									c43.941-12.748,69.32-58.869,56.573-102.811c-6.176-21.286-20.271-38.894-39.689-49.579
									C2803.09,1237.744,2789.433,1234.264,2775.633,1234.264z"/></g><g><path fill="#262525" d="M2975.634,1856.136c-11.088-414.557-292.446-504.203-292.446-504.203
								c-265.253-345.525-677.969-175.73-729.441-188.197c-80.323-19.456-108.202,43.764-108.202,43.764
								c-218.214-6.361-236.84,182.834-236.84,182.834c-138.622,87.763-13.666,222.565-13.666,222.565
								c-27.381,189.118,28.77,378.074,28.77,378.074c-3.238-121.067,46.749-316.643,46.749-316.643
								c52.282,153.475,487.36,120.791,608.68,70.646c116.467-48.139,262.113-37.93,273.706-37.026
								c31.442,66.872,69.081,514.497,69.081,514.497l122.267,172.335l16.287,175.13v227.397
								C2860.995,2691.372,2986.722,2270.694,2975.634,1856.136z"/><path fill="#262525" d="M2760.575,2804.31c-0.87,0-1.749-0.162-2.59-0.498c-2.662-1.061-4.408-3.637-4.408-6.502
								v-227.072l-16.082-172.936l-121.18-170.804c-0.725-1.021-1.161-2.217-1.267-3.464
								c-0.368-4.387-36.604-431.962-66.851-508.403c-28.468-1.855-159.218-7.44-266.288,36.814
								c-55.529,22.951-175.079,42.217-294.605,42.22c-89.852,0.002-179.678-10.88-242.352-39.266
								c-34.088-15.439-58.325-35.203-72.324-58.92c-12.329,52.329-44.407,198.762-41.825,295.307
								c0.094,3.511-2.429,6.548-5.897,7.1c-3.474,0.551-6.81-1.552-7.81-4.919c-0.142-0.477-14.3-48.526-24.865-119.074
								c-9.648-64.423-18.199-161.316-4.582-258.767c-11.223-12.957-58.701-72.101-50.337-136.354
								c4.736-36.386,26.551-67.511,64.858-92.558c1.722-11.985,9.363-52.885,37.352-93.644
								c19.198-27.958,44.004-49.961,73.729-65.397c35.872-18.628,78.935-27.62,128.094-26.772
								c3.421-6.047,10.975-17.458,23.851-27.581c16.739-13.16,45.973-26.597,90.197-15.886c8.378,2.031,32.3-2.408,62.585-8.027
								c68.296-12.671,182.601-33.88,305.614-16.414c68.127,9.673,131.421,30.236,188.124,61.118
								c66.427,36.18,125.537,87.436,175.724,152.374c12.604,4.436,76.797,29.372,142.846,97.727
								c42.251,43.727,76.377,96.229,101.431,156.047c31.231,74.568,48.361,160.763,50.914,256.19
								c5.06,189.208-18.351,398.104-65.921,588.206c-42.283,168.973-98.752,302.793-151.054,357.97
								C2764.31,2803.548,2762.461,2804.31,2760.575,2804.31z M2628.839,2219.955L2750,2390.733
								c0.712,1.003,1.147,2.177,1.261,3.402l16.286,175.128c0.021,0.216,0.03,0.433,0.03,0.648v208.43
								c20.823-26.753,42.737-66.78,64.079-117.214c26.139-61.768,50.854-137.971,71.474-220.372
								c47.27-188.904,70.534-396.459,65.507-584.433c-5.668-211.898-83.839-336.048-148.418-402.883
								c-69.692-72.127-138.47-94.619-139.156-94.837c-1.361-0.434-2.558-1.273-3.428-2.407
								c-211.963-276.11-523.898-218.237-657.101-193.524c-34.414,6.384-57.148,10.601-68.435,7.868
								c-30.869-7.478-57.033-3.133-77.766,12.909c-15.645,12.105-22.326,26.748-22.392,26.895
								c-1.159,2.584-3.753,4.242-6.601,4.153c-87.722-2.572-152.971,26.216-193.946,85.519
								c-30.745,44.498-35.678,90.552-35.724,91.012c-0.215,2.141-1.403,4.071-3.221,5.222
								c-36.357,23.018-56.965,51.39-61.253,84.33c-8.432,64.776,48.4,126.942,48.976,127.562c1.438,1.551,2.097,3.669,1.794,5.762
								c-14.008,96.756-5.517,193.522,4.074,257.662c3.855,25.781,8.191,48.498,12.131,66.914
								c8.012-117.638,45.17-264.183,45.604-265.881c0.767-3,3.414-5.141,6.508-5.261c3.089-0.132,5.901,1.806,6.899,4.737
								c9.692,28.453,34.438,51.86,73.547,69.574c62.996,28.531,162.666,41.74,280.649,37.182
								c97.396-3.759,195.927-19.963,245.184-40.322c116.994-48.357,260.901-38.788,276.925-37.535c2.509,0.195,4.719,1.723,5.79,4
								C2590.166,1770.667,2625.782,2183.926,2628.839,2219.955z"/></g></g><g><path fill="#cfcfcf" d="M2896.957,2427.324l-121.538,57.709c-98.928,46.974-213.048-25.17-213.048-134.684
								c0-57.568,33.142-109.992,85.145-134.684l121.538-57.71c98.928-46.974,213.048,25.17,213.048,134.684
								C2982.102,2350.208,2948.96,2402.632,2896.957,2427.324z"/><path fill="#262525" d="M2737.529,2504.285c-3.32,0-6.268-2.372-6.88-5.754c-0.689-3.804,1.836-7.446,5.641-8.135
								c12.353-2.237,24.508-6.168,36.126-11.685l121.538-57.709c49.295-23.407,81.147-73.791,81.147-128.361
								c0-49.016-24.735-93.917-66.167-120.108c-41.432-26.193-92.603-29.277-136.878-8.252l-121.538,57.709
								c-10.956,5.203-21.206,11.786-30.466,19.566c-2.959,2.487-7.374,2.104-9.862-0.856c-2.487-2.96-2.104-7.375,0.856-9.862
								c10.172-8.548,21.432-15.78,33.466-21.495l121.538-57.709c48.643-23.098,104.853-19.707,150.365,9.065
								c45.514,28.772,72.686,78.097,72.686,131.942c0,29.572-8.353,58.415-24.154,83.411s-38.274,44.913-64.987,57.597
								l-121.538,57.709c-12.734,6.046-26.07,10.358-39.638,12.815C2738.362,2504.248,2737.943,2504.285,2737.529,2504.285z"/><g><path fill="#262525" d="M2699.288,2409.94c-2.043,0-4.067-0.89-5.451-2.604
								c-15.985-19.804-24.789-44.754-24.789-70.254c0-61.72,50.213-111.933,111.933-111.933c19.66,0,39,5.171,55.93,14.955
								c16.418,9.488,30.265,23.093,40.044,39.345c1.993,3.312,0.924,7.613-2.389,9.607c-3.314,1.992-7.614,0.924-9.607-2.389
								c-17.903-29.753-49.297-47.517-83.978-47.517c-54,0-97.933,43.933-97.933,97.933c0,22.634,7.498,43.887,21.684,61.461
								c2.428,3.008,1.958,7.415-1.051,9.843C2702.386,2409.432,2700.832,2409.94,2699.288,2409.94z"/><path fill="#262525" d="M2807.76,2363.1c-2.248,0-4.454-1.08-5.808-3.082c-18.267-27.039-48.626-43.182-81.211-43.182
								c-15.425,0-26.07,3.559-38.249,9.301c-3.499,1.648-7.669,0.15-9.316-3.346c-1.649-3.497-0.151-7.668,3.346-9.317
								c13.542-6.385,26.245-10.638,44.22-10.638c37.242,0,71.938,18.447,92.812,49.345c2.164,3.204,1.321,7.555-1.882,9.719
								C2810.471,2362.711,2809.107,2363.1,2807.76,2363.1z"/></g></g></g><g><path fill="#262525" d="M1482.991,3525.496c-223.622,0-365.19,147.227-427.31,376.494
							c218.881,225.44,490.004,399.861,793.929,503.565l76.058-437.382C1925.668,3723.69,1727.474,3525.496,1482.991,3525.496z"/><path fill="#262525" d="M1849.609,4412.555c-0.761,0-1.524-0.124-2.26-0.375
							c-150.75-51.438-295.542-121.033-430.354-206.851c-133.003-84.667-256.256-185.084-366.336-298.463
							c-1.721-1.772-2.38-4.321-1.734-6.707c32.277-119.126,84.463-212.505,155.107-277.541
							c75.047-69.091,168.903-104.122,278.959-104.122c60.703,0,119.593,11.891,175.036,35.341
							c53.548,22.649,101.637,55.071,142.933,96.367c41.295,41.295,73.718,89.385,96.367,142.933
							c23.45,55.443,35.341,114.334,35.341,175.036c0,0.402-0.035,0.803-0.104,1.199l-76.058,437.382
							c-0.351,2.017-1.567,3.779-3.328,4.823C1852.086,4412.225,1850.852,4412.555,1849.609,4412.555z M1063.488,3899.977
							c217.834,223.463,487.511,394.901,780.631,496.29l74.547-428.695c-0.333-239.951-195.648-435.075-435.676-435.075
							C1220.556,3532.496,1110.01,3731.387,1063.488,3899.977z M1925.667,3968.173h0.01H1925.667z"/><path fill="#262525" d="M3557.895,3533.556l-797.304-134.069c0,0-198.138,152.102-469.123,126.009
							c-165.745-15.963-164.844-126.009-164.844-126.009l-685.701,127.988l-33.468,663.412
							c314.672,203.751,689.77,322.106,1092.547,322.106c522.653,0,998.751-199.216,1356.59-525.818v-98.527
							C3856.591,3713.402,3730.546,3563.554,3557.895,3533.556z"/><path fill="#262525" d="M2500.002,4519.993c-390.663,0-769.775-111.771-1096.352-323.23
							c-2.098-1.358-3.312-3.732-3.187-6.229l33.468-663.412c0.163-3.234,2.523-5.935,5.707-6.528l685.701-127.987
							c2.056-0.386,4.176,0.171,5.779,1.515c1.604,1.343,2.522,3.332,2.505,5.424c0,0.238,0.172,26.254,19.495,53.65
							c25.714,36.458,73.787,59.05,139.021,65.333c138.539,13.34,257.454-21.303,332.816-52.713
							c81.62-34.019,130.885-71.506,131.373-71.881c1.541-1.183,3.502-1.672,5.424-1.351l797.304,134.068
							c0.012,0.002,0.024,0.005,0.037,0.007c85.123,14.79,162.634,59.35,218.252,125.469
							c55.617,66.119,86.247,150.117,86.247,236.521v98.527c0,1.967-0.828,3.844-2.281,5.17
							c-89.839,81.997-187.556,156.253-290.435,220.706c-103.978,65.141-214.399,120.997-328.199,166.018
							C3006.309,4472.58,2756.437,4519.993,2500.002,4519.993z M1414.649,4187.201
							c323.538,208.571,698.746,318.792,1085.353,318.792c500.51,0,979.688-185.341,1349.59-521.909v-95.436
							c0-172.27-123.181-318.707-292.896-348.196l-794.318-133.565c-11.107,8.137-58.143,41.053-132.037,71.851
							c-48.879,20.373-99.335,35.499-149.965,44.959c-63.333,11.832-127.115,14.781-189.579,8.768
							c-38.743-3.731-71.829-12.895-98.34-27.234c-21.521-11.64-38.785-26.689-51.314-44.73
							c-14.834-21.359-19.447-41.722-20.878-52.704l-672.629,125.548L1414.649,4187.201z"/><g><path fill="#262525" d="M3476.018,3525.496c-244.479,0-442.673,198.194-442.673,442.677l87.767,447.014
							c300.977-97.544,570.874-264.01,791.095-480.853C3861.057,3691.726,3709.771,3525.496,3476.018,3525.496z"/><path fill="#262525" d="M3121.112,4422.187c-1.235,0-2.462-0.327-3.549-0.967c-1.726-1.015-2.935-2.72-3.32-4.685
							l-87.768-447.014c-0.087-0.444-0.131-0.896-0.131-1.349c0-60.702,11.891-119.593,35.341-175.036
							c22.649-53.548,55.071-101.638,96.366-142.933c41.296-41.296,89.385-73.718,142.933-96.367
							c55.442-23.45,114.332-35.341,175.034-35.341c58.011,0,112.584,10.187,162.202,30.275
							c47.825,19.363,91.316,48.017,129.265,85.163c36.815,36.038,68.479,80.119,94.112,131.02
							c25.172,49.985,44.504,106.487,57.46,167.936c0.492,2.334-0.238,4.759-1.938,6.433
							c-110.775,109.076-234.094,205.351-366.529,286.151c-134.286,81.929-278.058,147.997-427.319,196.372
							C3122.566,4422.074,3121.838,4422.187,3121.112,4422.187z M3040.346,3967.495l86.112,438.584
							c290.143-95.328,558.944-259.077,778.103-474.044c-54.768-253.977-210.795-399.539-428.542-399.539
							C3236.007,3532.496,3040.703,3727.563,3040.346,3967.495z"/></g><path fill="#fff" d="M2370.02,3624.579c-39.248,0-78.589-3.718-117.875-11.164
					c-80.526-15.264-128.972-54.457-155.433-84.647c-28.831-32.896-38.408-62.01-38.801-63.233c-1.184-3.68,0.839-7.623,4.52-8.808
					c3.679-1.178,7.617,0.836,8.804,4.51l0,0c0.09,0.276,9.32,28.047,36.464,58.824c24.989,28.334,70.786,65.144,147.054,79.599
					c248.979,47.195,439.636-68.544,531.123-141.734c3.021-2.415,7.424-1.926,9.839,1.093s1.926,7.424-1.093,9.839
					c-71.649,57.319-153.696,101.266-237.271,127.088C2495.609,3615.021,2432.939,3624.579,2370.02,3624.579z"/><g><path fill="#fff" d="M3041.919,4439.052l-181.799-373.493l-215.29,442.297
							C2781.432,4498.131,2914.21,4474.673,3041.919,4439.052z"/><path fill="#262525" d="M2644.829,4514.855c-2.313,0-4.491-1.146-5.798-3.08c-1.401-2.072-1.59-4.734-0.495-6.983
							l215.29-442.296c1.172-2.408,3.615-3.937,6.294-3.937s5.122,1.528,6.294,3.937l181.799,373.492
							c0.909,1.867,0.941,4.042,0.09,5.937c-0.853,1.894-2.503,3.312-4.503,3.869c-129.935,36.242-264,59.472-398.473,69.044
							C2645.16,4514.85,2644.994,4514.855,2644.829,4514.855z M2860.12,4081.554l-203.668,418.419
							c126.682-9.798,252.896-31.786,375.49-65.424L2860.12,4081.554z"/><path fill="#fff" d="M2500.002,4512.993c31.732,0,63.286-0.76,94.661-2.215l-216.712-445.219l-204.776,420.698
							C2279.578,4503.636,2388.681,4512.993,2500.002,4512.993z"/><path fill="#262525" d="M2500.002,4519.993c-108.622,0-218.962-9.025-327.956-26.827
							c-2.183-0.356-4.069-1.724-5.087-3.688s-1.047-4.294-0.079-6.283l204.776-420.698c1.172-2.408,3.616-3.937,6.294-3.937
							s5.122,1.528,6.294,3.937l216.711,445.219c1.031,2.117,0.928,4.611-0.274,6.637s-3.343,3.311-5.695,3.419
							C2563.19,4519.245,2531.233,4519.993,2500.002,4519.993z M2183.594,4480.845c105.223,16.688,211.627,25.148,316.408,25.148
							c27.534,0,55.641-0.585,83.698-1.741l-205.75-422.698L2183.594,4480.845z"/><g><path fill="#fff" d="M2093.401,4471.554l-197.621-405.994l-147.076,302.159
							C1859.105,4412.173,1974.318,4447.112,2093.401,4471.554z"/><path fill="#262525" d="M2093.402,4478.554c-0.467,0-0.939-0.047-1.408-0.143
							c-117.924-24.204-234.303-59.262-345.904-104.199c-1.801-0.725-3.22-2.166-3.918-3.979c-0.698-1.812-0.611-3.832,0.239-5.578
							l147.076-302.159c1.172-2.408,3.616-3.937,6.294-3.937s5.122,1.528,6.294,3.937l197.621,405.994
							c1.167,2.397,0.871,5.25-0.765,7.355C2097.589,4477.574,2095.538,4478.554,2093.402,4478.554z M1758.292,4364.018
							c104.284,41.53,212.69,74.384,322.568,97.764l-185.079-380.228L1758.292,4364.018z"/></g></g></g></g></svg>