<svg xmlns="http://www.w3.org/2000/svg" enable-background="new 0 0 5000 5000" viewBox="0 0 5000 5000"><circle cx="2500" cy="2499.998" r="2013" fill="#fff"/><path fill="#262525" d="M2500,4519.998c-137.05,0-274.016-13.808-407.093-41.039
					c-129.698-26.54-257.274-66.142-379.184-117.706c-119.695-50.626-235.14-113.287-343.128-186.243
					c-106.961-72.262-207.542-155.249-298.95-246.656c-91.407-91.407-174.394-191.988-246.656-298.949
					c-72.956-107.989-135.617-223.435-186.244-343.129c-51.563-121.909-91.165-249.485-117.706-379.185
					C493.807,2774.014,480,2637.048,480,2499.998s13.807-274.016,41.039-407.093c26.541-129.698,66.142-257.274,117.706-379.184
					c50.626-119.695,113.288-235.14,186.244-343.128c72.262-106.961,155.249-207.542,246.656-298.95
					c91.408-91.407,191.989-174.394,298.95-246.656c107.988-72.956,223.434-135.617,343.128-186.244
					c121.91-51.563,249.486-91.165,379.184-117.706c133.078-27.232,270.043-41.039,407.093-41.039s274.016,13.807,407.093,41.039
					c129.699,26.541,257.275,66.142,379.185,117.706c119.694,50.626,235.14,113.288,343.129,186.244
					c106.961,72.262,207.542,155.249,298.949,246.656c91.407,91.408,174.395,191.989,246.656,298.95
					c72.956,107.988,135.617,223.434,186.243,343.128c51.564,121.91,91.166,249.486,117.706,379.184
					c27.231,133.078,41.039,270.043,41.039,407.093s-13.808,274.016-41.039,407.093c-26.54,129.699-66.142,257.275-117.706,379.185
					c-50.626,119.694-113.287,235.14-186.243,343.129c-72.262,106.961-155.249,207.542-246.656,298.949
					s-191.988,174.395-298.949,246.656c-107.989,72.956-223.435,135.617-343.129,186.243
					c-121.909,51.564-249.485,91.166-379.185,117.706C2774.016,4506.19,2637.05,4519.998,2500,4519.998z M2500,493.998
					c-1106.112,0-2006,899.888-2006,2006s899.888,2006,2006,2006s2006-899.888,2006-2006S3606.112,493.998,2500,493.998z"/><g><path fill="#262525" d="M4024.024,3492.621c-1.305,0-2.624-0.364-3.8-1.127c-3.245-2.103-4.17-6.437-2.068-9.681
					c189.458-292.351,289.6-631.856,289.6-981.815c0-773.189-491.201-1460.726-1222.291-1710.847
					c-3.658-1.251-5.608-5.231-4.357-8.889c1.25-3.658,5.226-5.611,8.889-4.357c177.26,60.644,343.724,148.244,494.769,260.366
					c149.331,110.851,280.485,243.325,389.819,393.743c110.673,152.259,196.627,319.718,255.475,497.723
					c60.846,184.048,91.697,376.583,91.697,572.261c0,352.667-100.92,694.807-291.851,989.429
					C4028.565,3491.495,4026.318,3492.621,4024.024,3492.621z"/><path fill="#262525" d="M1958.066,774.542c-2.981,0-5.744-1.919-6.68-4.914c-1.153-3.69,0.904-7.616,4.594-8.77
					c175.433-54.82,358.467-82.617,544.02-82.617c47.436,0,95.354,1.846,142.425,5.486c3.854,0.298,6.737,3.664,6.439,7.519
					c-0.299,3.855-3.679,6.734-7.52,6.439c-46.713-3.612-94.268-5.444-141.345-5.444c-184.135,0-365.765,27.582-539.844,81.979
					C1959.461,774.439,1958.758,774.542,1958.066,774.542z"/><path fill="#262525" d="M1076.159,3632.284c-2.066,0-4.112-0.91-5.494-2.656
					c-124.596-157.439-221.612-332.81-288.354-521.237c-69.054-194.956-104.067-399.648-104.067-608.393
					c0-136.166,15.089-271.932,44.848-403.529c28.952-128.026,72.017-253.188,128-372.01
					c54.97-116.671,122.705-227.915,201.325-330.644c78.045-101.979,167.146-196.002,264.824-279.458
					c2.94-2.513,7.358-2.164,9.869,0.775c2.511,2.939,2.165,7.357-0.774,9.869c-402.975,344.298-634.092,845.465-634.092,1374.997
					c0,411.428,134.652,799.043,389.399,1120.942c2.399,3.031,1.887,7.434-1.145,9.833
					C1079.212,3631.791,1077.68,3632.284,1076.159,3632.284z"/></g><g><path fill="#262525" d="M2375.699,1195.566c0,0,751.708-111.457,860.11,659.924
						c106.643,758.864,137.915,1097.4,137.915,1097.4H1639.567l176.409-1368.554L2375.699,1195.566z"/><path fill="#262525" d="M3373.725,2959.89H1639.567c-2.012,0-3.928-0.866-5.257-2.377
						c-1.329-1.512-1.943-3.521-1.686-5.518l176.41-1368.555c0.253-1.962,1.324-3.726,2.949-4.854l559.723-388.77
						c0.885-0.615,1.9-1.017,2.966-1.175c0.831-0.123,84.322-12.175,197.777-0.661c66.64,6.763,130.52,20.206,189.863,39.955
						c74.284,24.721,141.632,59.447,200.173,103.214c153.264,114.587,247.556,290.673,280.256,523.366
						c105.446,750.349,137.641,1094.343,137.954,1097.731c0.181,1.96-0.472,3.905-1.798,5.36
						C3377.57,2959.061,3375.693,2959.89,3373.725,2959.89z M1647.528,2945.89h1718.493
						c-5.309-54.455-40.34-400.579-137.143-1089.426c-32.162-228.862-124.61-401.831-274.776-514.102
						c-129.929-97.141-280.028-129.997-383.066-140.453c-103.177-10.472-180.795-1.212-192.721,0.364l-555.792,386.04
						L1647.528,2945.89z"/><path fill="#fff" d="M2740.988,3625.314h-240.471c-108.662,0-196.75-88.088-196.75-196.749v-870.07
							c0-108.662,88.088-196.749,196.75-196.749h240.471c108.662,0,196.75,88.087,196.75,196.749v870.07
							C2937.737,3537.226,2849.649,3625.314,2740.988,3625.314z"/><path fill="#262525" d="M2740.987,3632.313h-240.471c-112.348,0-203.75-91.401-203.75-203.749v-870.069
							c0-112.348,91.402-203.75,203.75-203.75h240.471c112.348,0,203.75,91.402,203.75,203.75v870.069
							C2944.737,3540.912,2853.335,3632.313,2740.987,3632.313z M2500.516,2368.746c-104.628,0-189.75,85.121-189.75,189.75v870.069
							c0,104.628,85.122,189.749,189.75,189.749h240.471c104.629,0,189.75-85.121,189.75-189.749v-870.069
							c0-104.628-85.121-189.75-189.75-189.75H2500.516z"/><path fill="#262525" d="M2806.449,2678.458v-305.514c-20.483-7.228-42.504-11.199-65.461-11.199h-240.471
						c-108.662,0-196.749,88.088-196.749,196.749v705.383C2593.79,3263.878,2806.449,2996.866,2806.449,2678.458z"/><g><path fill="#fff" d="M2235.999,3091.904c-240.264,0-435.036-194.772-435.036-435.035v-837.278
							c0-313.911,254.475-568.387,568.387-568.387c313.912,0,568.388,254.475,568.388,568.387v570.574
							C2937.737,2777.725,2623.558,3091.904,2235.999,3091.904z"/><path fill="#262525" d="M2235.999,3098.904c-59.671,0-117.562-11.688-172.062-34.74
							c-52.638-22.264-99.911-54.136-140.504-94.729c-40.594-40.594-72.465-87.866-94.729-140.504
							c-23.052-54.501-34.74-112.392-34.74-172.062v-837.278c0-77.674,15.214-153.028,45.22-223.969
							c28.98-68.518,70.467-130.051,123.307-182.891s114.374-94.327,182.892-123.307c70.941-30.006,146.295-45.22,223.969-45.22
							s153.028,15.214,223.969,45.22c68.518,28.98,130.052,70.467,182.892,123.307c52.841,52.84,94.327,114.374,123.308,182.891
							c30.006,70.941,45.22,146.295,45.22,223.969v570.574c0,95.676-18.74,188.494-55.699,275.875
							c-35.697,84.396-86.799,160.191-151.886,225.278s-140.882,116.188-225.278,151.886
							C2424.492,3080.164,2331.674,3098.904,2235.999,3098.904z M2369.35,1258.205c-309.55,0-561.387,251.837-561.387,561.387
							v837.278c0,236.02,192.016,428.035,428.036,428.035c383.081,0,694.739-311.658,694.739-694.739v-570.574
							C2930.737,1510.042,2678.899,1258.205,2369.35,1258.205z"/><path fill="#262525" d="M2937.737,2765.184l149.979-381.125l-11.819-592.748c0,0-27.43-608.847-700.198-595.745
									c-599.785,11.68-584.728,453.597-574.344,683.887c0,0,28.745-198.206,107.144-252.751c0,0,299.565,69.577,543.296-29.591
									c0,0,367.701,552.313,428.486,588.274c60.785,35.961,57.456,294.528,57.456,294.528V2765.184z"/><path fill="#262525" d="M2937.741,2772.185c-0.433,0-0.87-0.04-1.309-0.124c-3.304-0.626-5.695-3.514-5.695-6.877
									v-285.271c0.009-0.733,0.748-65.237-5.911-133.207c-8.506-86.823-25.592-141.975-48.109-155.296
									c-26.075-15.426-106.559-119.604-239.213-309.64c-88.18-126.323-171.352-250.551-188.377-276.045
									c-54.871,21.708-116.816,36.774-184.218,44.797c-55.554,6.613-114.934,8.485-176.492,5.565
									c-92.808-4.403-163.01-18.573-178.365-21.875c-73.186,54.632-101.488,244.316-101.769,246.247
									c-0.519,3.572-3.683,6.161-7.274,5.986c-3.605-0.179-6.483-3.07-6.646-6.676c-2.94-65.215-7.384-163.768,8.076-260.949
									c8.224-51.693,21.463-99.169,39.351-141.109c20.768-48.693,48.563-91.8,82.615-128.123
									c45.689-48.737,104.159-86.91,173.785-113.459c77.314-29.48,170.637-45.482,277.375-47.561
									c154.725-3.021,288.244,26.752,396.826,88.471c87.032,49.469,158.255,119.406,211.689,207.868
									c47.463,78.574,71.791,157.518,83.844,209.908c13.075,56.84,14.897,94.602,14.969,96.182
									c0.002,0.058,0.004,0.117,0.006,0.175l11.819,592.748c0.018,0.924-0.146,1.843-0.485,2.703l-149.979,381.125
									C2943.183,2770.461,2940.571,2772.185,2937.741,2772.185z M2944.737,2765.184h0.01H2944.737z M2451.792,1590.11
									c2.287,0,4.499,1.123,5.829,3.121c0.919,1.38,93.032,139.661,191.375,280.542
									c163.786,234.634,218.115,295.687,234.85,305.587c15.686,9.279,28.048,30.646,37.796,65.321
									c7.397,26.316,13.16,60.22,17.129,100.771c6.726,68.727,5.975,133.9,5.966,134.551l0.001,248.276l135.953-345.481
									l-11.79-591.252c-0.101-1.982-2.152-39.572-14.747-94.132c-11.862-51.393-35.778-128.806-82.345-205.744
									c-82.062-135.586-252.061-295.782-595.973-289.107c-198.991,3.875-347.438,56.562-441.219,156.598
									c-123.811,132.07-132.513,322.539-128.598,460.481c3.437-14.69,7.684-31.136,12.805-48.131
									c23.009-76.357,51.835-127.012,85.677-150.557c1.624-1.131,3.652-1.521,5.581-1.073
									c0.745,0.173,75.71,17.345,179.292,22.233c95.343,4.499,235.153-0.781,359.783-51.489
									C2450.016,1590.278,2450.91,1590.11,2451.792,1590.11z"/><g><circle cx="2692.606" cy="1189.964" r="394.19" fill="#262525" transform="rotate(-45.001 2692.606 1190)"/><path fill="#262525" d="M2691.938,1591.215c-36.562,0-72.77-5.01-108.154-14.996
									c-49.922-14.088-96.1-37.436-137.251-69.393c-41.151-31.958-75.205-70.918-101.214-115.798
									c-26.93-46.468-44.011-97.275-50.768-151.009c-6.757-53.734-2.787-107.188,11.8-158.877
									c14.088-49.922,37.436-96.1,69.394-137.251s70.917-75.205,115.797-101.214c46.469-26.93,97.275-44.011,151.01-50.768
									c53.731-6.757,107.188-2.787,158.877,11.8c49.922,14.088,96.1,37.436,137.251,69.393
									c41.151,31.958,75.205,70.918,101.215,115.798c26.93,46.468,44.011,97.275,50.768,151.009
									c6.757,53.734,2.787,107.188-11.8,158.877c-14.089,49.922-37.437,96.1-69.394,137.251
									c-31.958,41.151-70.918,75.205-115.798,101.214c-46.469,26.93-97.275,44.011-151.01,50.768
									C2725.712,1590.15,2708.786,1591.214,2691.938,1591.215z M2693.393,802.712c-16.288,0-32.673,1.021-49.095,3.086
									c-102.613,12.903-194.061,64.995-257.496,146.678c-63.435,81.684-91.264,183.181-78.36,285.795
									c24.584,195.5,191.742,338.901,383.886,338.909c16.049,0,32.257-1,48.587-3.053
									c211.829-26.637,362.493-220.644,335.856-432.473c-12.903-102.614-64.995-194.062-146.679-257.497
									C2861.481,830.876,2778.882,802.712,2693.393,802.712z"/></g><g><path fill="#fff" d="M2659.975,1536.637c38.336,24.384,172.167,113.799,257.806,225.27
									c13.325,17.345,15.989,40.869,6.241,60.45c-5.002,10.046-12.417,20.899-23.412,30.938
									c-13.517,12.341-29.262,20.546-43.224,25.943c-21.031,8.129-44.914,3.735-61.242-11.815
									c-107.236-102.13-173.191-238.201-192.291-280.953c-4.526-10.131-3.902-21.736,1.675-31.328
									c2.907-4.999,6.783-10.216,11.835-14.448c4.485-3.757,9.266-6.208,13.728-7.803
									C2640.707,1529.454,2651.359,1531.157,2659.975,1536.637z"/><path fill="#262525" d="M2836.1,1890.204c-16.471,0-32.636-6.144-44.783-17.713
									c-108.772-103.595-175.878-242.93-193.854-283.166c-5.415-12.123-4.662-26.217,2.015-37.703
									c3.821-6.57,8.327-12.053,13.392-16.295c4.642-3.888,9.98-6.925,15.869-9.029c11.402-4.074,24.16-2.458,34.994,4.433l0,0
									c39.122,24.884,173.462,114.789,259.6,226.912c15.013,19.54,17.744,46.166,6.958,67.834
									c-6.179,12.409-14.576,23.507-24.96,32.987c-12.285,11.216-27.566,20.402-45.419,27.303
									C2852.186,1888.752,2844.106,1890.204,2836.1,1890.204z M2641.424,1538.13c-2.741,0-5.44,0.445-7.977,1.352
									c-4.323,1.544-8.223,3.757-11.589,6.577c-3.817,3.198-7.276,7.437-10.279,12.601c-4.42,7.603-4.919,16.931-1.334,24.954
									c17.711,39.645,83.811,176.912,190.727,278.739c14.149,13.476,35.303,17.54,53.892,10.354
									c16.226-6.271,30.029-14.542,41.026-24.583c9.104-8.312,16.461-18.031,21.866-28.888c8.418-16.91,6.249-37.739-5.526-53.065
									c-84.742-110.306-217.379-199.055-256.012-223.628l0,0C2651.646,1539.635,2646.464,1538.13,2641.424,1538.13z"/><g><path fill="#262525" d="M2784.264,1750.272l16.239,54.3c3.713,12.417,18.801,17.146,28.938,9.071l33.057-26.334
									c10.137-8.076,8.9-23.838-2.373-30.234l-49.297-27.966C2796.484,1720.971,2779.539,1734.47,2784.264,1750.272z"/><path fill="#262525" d="M2818.046,1824.633c-2.536,0-5.089-0.382-7.577-1.162
									c-8.028-2.517-14.261-8.832-16.672-16.894l-16.239-54.301c-3.021-10.106,0.226-20.467,8.477-27.04
									c8.25-6.573,19.075-7.422,28.249-2.217l49.297,27.966c7.318,4.152,12.081,11.639,12.739,20.027s-2.878,16.527-9.459,21.77
									l-33.058,26.334C2829.26,1822.737,2823.696,1824.633,2818.046,1824.633z M2801.738,1733.658c-2.454,0-4.872,0.85-6.98,2.53
									c-3.742,2.98-5.157,7.496-3.787,12.078v0l16.239,54.3c1.093,3.654,3.807,6.405,7.447,7.546
									c3.64,1.141,7.439,0.432,10.423-1.945l33.058-26.334c2.983-2.377,4.523-5.921,4.225-9.724
									c-0.299-3.803-2.372-7.064-5.69-8.946l-49.297-27.966C2805.56,1734.168,2803.638,1733.658,2801.738,1733.658z"/></g></g><g><path fill="#fff" d="M3074.117,2427.314l-121.539,57.71c-98.928,46.974-213.048-25.17-213.048-134.685
								c0-57.568,33.142-109.992,85.145-134.685l121.539-57.71c98.928-46.974,239.05,25.17,239.05,134.684
								C3185.264,2350.198,3126.121,2402.622,3074.117,2427.314z"/><path fill="#262525" d="M2898.162,2506.307c-3.658,0-6.736-2.841-6.979-6.543c-0.252-3.858,2.671-7.19,6.528-7.442
								c17.838-1.167,35.287-5.75,51.864-13.62l121.538-57.71c51.606-24.504,107.149-75.124,107.149-128.362
								c0-44.817-25.066-86.368-68.771-113.998c-49.645-31.384-112.559-37.022-160.275-14.364l-121.539,57.71
								c-1.8,0.854-3.61,1.761-5.384,2.697c-3.419,1.805-7.652,0.495-9.458-2.924c-1.804-3.419-0.494-7.654,2.925-9.458
								c1.947-1.027,3.937-2.024,5.912-2.962l121.538-57.709c26.549-12.606,57.278-17.544,88.858-14.292
								c29.929,3.085,59.288,13.275,84.904,29.469c47.848,30.249,75.29,76.112,75.29,125.831c0,27.964-13.104,57.143-37.895,84.383
								c-20.316,22.322-48.473,42.962-77.249,56.625l-121.539,57.71c-18.183,8.633-37.345,13.661-56.955,14.943
								C2898.471,2506.302,2898.315,2506.307,2898.162,2506.307z"/><g><path fill="#262525" d="M2876.447,2409.931c-2.043,0-4.068-0.891-5.451-2.604
								c-15.984-19.806-24.788-44.756-24.788-70.255c0-61.72,50.213-111.933,111.933-111.933c19.66,0,39,5.171,55.93,14.955
								c16.418,9.488,30.265,23.093,40.044,39.345c1.993,3.312,0.924,7.614-2.389,9.607c-3.314,1.993-7.614,0.924-9.607-2.389
								c-17.903-29.754-49.297-47.518-83.978-47.518c-54,0-97.933,43.933-97.933,97.933c0,22.634,7.498,43.887,21.683,61.462
								c2.428,3.008,1.958,7.416-1.051,9.844C2879.545,2409.422,2877.991,2409.931,2876.447,2409.931z"/><path fill="#262525" d="M2984.92,2363.09c-2.248,0-4.454-1.08-5.808-3.082
								c-18.267-27.039-48.626-43.182-81.211-43.182c-14.061,0-26.877,2.956-40.335,9.301c-3.499,1.647-7.668,0.15-9.316-3.346
								c-1.649-3.497-0.151-7.668,3.346-9.317c15.393-7.258,30.106-10.638,46.306-10.638c37.242,0,71.938,18.447,92.812,49.345
								c2.164,3.204,1.321,7.555-1.882,9.719C2987.631,2362.701,2986.268,2363.09,2984.92,2363.09z"/></g></g><g><path fill="#262525" d="M2483.027,2196.086c0,35.013-20.554,38.38-45.908,38.38s-45.908-3.366-45.908-38.38
								c0-46.877,20.554-46.877,45.908-46.877S2483.027,2149.779,2483.027,2196.086z"/><path fill="#262525" d="M2303.759,2230.041c-1.197,0-2.409-0.307-3.517-0.953c-3.334-1.945-4.468-6.217-2.53-9.555
								c0.636-1.095,15.975-27.074,50.693-48.732c20.306-12.667,43.088-21.24,67.714-25.48c30.578-5.267,64.066-3.82,99.533,4.297
								c0.041,0.01,0.082,0.019,0.122,0.029c0.809,0.2,81.495,19.725,122.343-6.339c3.259-2.082,7.586-1.124,9.667,2.135
								c2.079,3.259,1.123,7.587-2.136,9.667c-45.667,29.142-128.777,9.227-133.176,8.143
								c-60.633-13.867-113.129-7.46-156.034,19.041c-32.031,19.785-46.484,44.04-46.626,44.283
								C2308.509,2228.799,2306.166,2230.041,2303.759,2230.041z"/><path fill="#262525" d="M2142.945,2543.845c-17.12,0-32.714-0.385-42.476-1.477
							c-10.367-1.161-19.567-6.374-25.906-14.682c-6.352-8.322-8.957-18.598-7.335-28.932
							c21.379-136.268,84.882-361.103,85.521-363.357c1.054-3.719,4.923-5.879,8.643-4.827c3.72,1.054,5.88,4.923,4.827,8.643
							c-0.637,2.247-63.913,226.28-85.16,361.711c-1.024,6.525,0.622,13.012,4.633,18.269c3.999,5.241,9.8,8.53,16.334,9.261
							c31.157,3.489,129.038-0.714,130.023-0.757c3.857-0.196,7.129,2.826,7.297,6.688s-2.827,7.13-6.689,7.298
							C2229.824,2541.808,2182.354,2543.845,2142.945,2543.845z"/><path fill="#fff" d="M2211.586,2675.808c-16.844,0-31.297,10.209-37.529,24.773
									c-6.231-14.564-20.685-24.773-37.528-24.773c-22.538,0-40.808,18.27-40.808,40.807c0,22.537,18.27,40.807,40.808,40.807
									c16.843,0,31.297-10.209,37.528-24.774c6.232,14.565,20.684,24.774,37.529,24.774c22.537,0,40.807-18.271,40.807-40.807
									C2252.393,2694.078,2234.124,2675.808,2211.586,2675.808z"/><path fill="#262525" d="M2211.586,2764.423c-14.876,0-28.602-6.862-37.528-18.18
									c-8.926,11.315-22.653,18.18-37.528,18.18c-26.361,0-47.807-21.446-47.807-47.808c0-26.36,21.446-47.807,47.807-47.807
									c14.876,0,28.603,6.862,37.528,18.179c8.926-11.316,22.652-18.179,37.528-18.179c26.361,0,47.807,21.446,47.807,47.807
									C2259.393,2742.977,2237.947,2764.423,2211.586,2764.423z M2174.058,2725.649c2.802,0,5.333,1.671,6.436,4.246
									c5.336,12.47,17.541,20.527,31.093,20.527c18.641,0,33.807-15.166,33.807-33.808c0-18.641-15.166-33.807-33.807-33.807
									c-13.553,0-25.757,8.057-31.093,20.526c-1.102,2.575-3.634,4.246-6.436,4.246l0,0c-2.802,0-5.333-1.671-6.436-4.246
									c-5.335-12.47-17.54-20.526-31.092-20.526c-18.641,0-33.807,15.166-33.807,33.807c0,18.642,15.166,33.808,33.807,33.808
									c13.553,0,25.757-8.058,31.092-20.526C2168.724,2727.32,2171.256,2725.649,2174.058,2725.649z"/><path fill="#fff" d="M2075.643,2719.378c10.241,30.696,45.991,71.503,103.272,71.503
									c57.284,0,92.546-39.836,103.719-71.413C2239.508,2728.552,2162.523,2738.431,2075.643,2719.378z"/><path fill="#262525" d="M2178.916,2797.882c-27.31,0-52.786-8.92-73.675-25.796
									c-16.871-13.629-30.079-32.033-36.237-50.492c-0.797-2.39-0.249-5.023,1.435-6.896s4.243-2.699,6.705-2.157
									c82.772,18.153,156.65,10.062,204.049,0.079c2.48-0.521,5.043,0.335,6.709,2.238c1.667,1.904,2.177,4.561,1.333,6.946
									c-6.659,18.82-20.069,37.292-36.792,50.678C2231.682,2789.099,2206.257,2797.882,2178.916,2797.882z M2087.386,2728.92
									c13.433,25.35,44.524,54.962,91.53,54.962c49.533,0,78.882-30.579,91.867-54.951
									C2224.855,2737.317,2159.884,2742.645,2087.386,2728.92z"/><path fill="#262525" d="M2178.251,2737.256c-40.857,0-89.617-4.869-140.581-20.587
								c-3.694-1.14-5.766-5.059-4.626-8.753s5.061-5.766,8.752-4.626c75.278,23.218,145.698,22.023,191.518,16.932
								c49.792-5.532,82.144-16.734,82.464-16.847c3.647-1.279,7.641,0.64,8.922,4.286c1.28,3.646-0.635,7.64-4.281,8.922
								c-1.358,0.478-33.859,11.765-85.117,17.504C2219.026,2735.91,2199.729,2737.256,2178.251,2737.256z"/><g><path fill="#262525" d="M2500.03,2063.464h-125.822c-17.171,0-31.092-13.92-31.092-31.092
								c0-17.171,13.92-31.091,31.092-31.091h125.822c17.171,0,31.091,13.92,31.091,31.091
								C2531.122,2049.543,2517.201,2063.464,2500.03,2063.464z"/><path fill="#262525" d="M2500.03,2070.463h-125.822c-21.003,0-38.091-17.088-38.091-38.091
								s17.088-38.091,38.091-38.091h125.822c21.004,0,38.092,17.088,38.092,38.091S2521.034,2070.463,2500.03,2070.463z
								 M2374.208,2008.281c-13.284,0-24.091,10.807-24.091,24.091s10.807,24.091,24.091,24.091h125.822
								c13.284,0,24.092-10.807,24.092-24.091s-10.808-24.091-24.092-24.091H2374.208z"/></g><g><path fill="#262525" d="M2012.286,2063.464h-125.823c-17.171,0-31.091-13.92-31.091-31.092
								c0-17.171,13.92-31.091,31.091-31.091h125.823c17.171,0,31.091,13.92,31.091,31.091
								C2043.377,2049.543,2029.457,2063.464,2012.286,2063.464z"/><path fill="#262525" d="M2012.286,2070.463h-125.822c-21.004,0-38.092-17.088-38.092-38.091
								s17.088-38.091,38.092-38.091h125.822c21.003,0,38.091,17.088,38.091,38.091S2033.29,2070.463,2012.286,2070.463z
								 M1886.464,2008.281c-13.284,0-24.092,10.807-24.092,24.091s10.808,24.091,24.092,24.091h125.822
								c13.284,0,24.091-10.807,24.091-24.091s-10.807-24.091-24.091-24.091H1886.464z"/></g><g><path fill="#262525" d="M1890.593,2196.086c0,35.013,20.554,38.38,45.908,38.38s45.908-3.366,45.908-38.38
								c0-46.877-20.554-46.877-45.908-46.877S1890.593,2149.779,1890.593,2196.086z"/><path fill="#262525" d="M2069.86,2230.049c-2.41,0-4.754-1.245-6.055-3.477c-0.232-0.393-14.695-24.558-46.624-44.279
								c-42.83-26.454-95.211-32.885-155.708-19.115c-5.916,2.044-62.729,20.501-107.501-8.068c-3.259-2.08-4.215-6.407-2.135-9.667
								c2.08-3.258,6.407-4.214,9.667-2.135c40.548,25.874,95.112,6.741,95.659,6.546c0.263-0.095,0.532-0.173,0.804-0.236
								c35.468-8.117,68.956-9.562,99.534-4.297c24.626,4.241,47.408,12.814,67.714,25.48
								c34.718,21.658,50.057,47.637,50.693,48.732c1.941,3.343,0.805,7.627-2.539,9.569
								C2072.263,2229.744,2071.053,2230.049,2069.86,2230.049z"/></g></g></g><g><path fill="#262525" d="M1660.132,3525.496c-244.483,0-410.522,180.371-442.673,442.677l-10.861,74.203
							c235.145,197.395,516.044,341.987,824.54,415.601l71.674-489.804C2102.812,3723.677,1904.618,3525.496,1660.132,3525.496z"/><path fill="#262525" d="M2031.138,4464.977c-0.542,0-1.088-0.063-1.625-0.191
							c-152.672-36.431-301.152-90.917-441.317-161.947c-137.645-69.753-267.548-155.581-386.1-255.101
							c-1.859-1.561-2.777-3.974-2.426-6.375l10.85-74.126c16.214-132.145,65.885-244.07,143.643-323.658
							c79.946-81.829,185.749-125.082,305.968-125.082c60.704,0,119.595,11.89,175.038,35.339
							c53.548,22.648,101.639,55.069,142.934,96.363c41.295,41.295,73.718,89.385,96.367,142.933
							c23.451,55.443,35.341,114.336,35.341,175.042c0,0.339-0.024,0.678-0.074,1.014l-71.674,489.804
							c-0.285,1.943-1.373,3.679-2.999,4.781C2033.896,4464.563,2032.525,4464.977,2031.138,4464.977z M1214.089,4039.521
							c234.89,196.387,515.151,337.978,811.232,409.855l70.489-481.712c-0.286-239.991-195.621-435.169-435.679-435.169
							c-232.19,0-403.222,171.348-435.725,436.528c-0.007,0.054-0.014,0.108-0.022,0.162L1214.089,4039.521z M2102.812,3968.173
							h0.01H2102.812z M1217.458,3968.173h0.01H1217.458z"/><path fill="#262525" d="M3735.042,3533.543l-797.305-165.583h-633.97l-685.707,159.502l-15.989,681.72l-26.08,79.589
							c276.735,143.243,590.899,224.222,924.008,224.222c609.869,0,1156.354-271.244,1525.509-699.635
							C3995.343,3672.015,3882.298,3559.138,3735.042,3533.543z"/><path fill="#262525" d="M2499.999,4519.993c-163.958,0-327.075-19.716-484.819-58.599
							c-153.184-37.758-302.031-93.745-442.407-166.406c-3.049-1.578-4.503-5.134-3.434-8.396l25.758-78.607l15.965-680.687
							c0.075-3.192,2.301-5.931,5.412-6.653l685.707-159.503c0.52-0.121,1.052-0.182,1.586-0.182h633.971
							c0.479,0,0.955,0.049,1.423,0.146l797.195,165.56c73.014,12.716,139.653,46.728,192.711,98.362
							c52.354,50.951,88.07,115.569,103.287,186.868c0.457,2.141-0.114,4.372-1.543,6.03
							c-92.532,107.381-196.629,205.304-309.4,291.049c-113.62,86.391-236.564,160.808-365.419,221.186
							c-131.234,61.493-269.421,108.793-410.719,140.586C2800.044,4503.425,2650.231,4519.993,2499.999,4519.993z M1584.5,4285.284
							c284.953,146.453,592.941,220.709,915.499,220.709c583.121,0,1136.186-253.13,1517.923-694.561
							c-31.324-140.189-142.477-246.381-284.078-270.993c-0.075-0.013-0.15-0.027-0.225-0.043l-796.601-165.437h-632.449
							l-679.639,158.091l-15.861,676.295c-0.016,0.686-0.133,1.364-0.346,2.016L1584.5,4285.284z"/><g><path fill="#262525" d="M3002.476,3485.62h-763.449v-166.724c0-37.885,30.711-68.596,68.596-68.596h626.257
							c37.884,0,68.596,30.711,68.596,68.596V3485.62z"/><path fill="#262525" d="M3002.477,3492.62h-763.449c-3.866,0-7-3.134-7-7v-166.725
							c0-41.684,33.912-75.596,75.596-75.596h626.258c41.684,0,75.596,33.912,75.596,75.596v166.725
							C3009.477,3489.486,3006.343,3492.62,3002.477,3492.62z M2246.027,3478.62h749.449v-159.725
							c0-33.964-27.632-61.596-61.596-61.596h-626.258c-33.964,0-61.596,27.632-61.596,61.596V3478.62z"/></g><g><path fill="#262525" d="M3653.169,3525.496c-244.483,0-442.677,198.181-442.677,442.677l65.505,389.717
							c300.698-125.747,564.354-322.342,770.159-568.948C3973.673,3620.93,3839.171,3525.496,3653.169,3525.496z"/><path fill="#262525" d="M3275.997,4364.89c-1.168,0-2.332-0.292-3.381-0.871c-1.871-1.031-3.168-2.861-3.522-4.969
							l-65.505-389.717c-0.064-0.383-0.097-0.771-0.097-1.16c0-60.706,11.891-119.599,35.341-175.042
							c22.648-53.548,55.071-101.638,96.367-142.933c41.295-41.294,89.385-73.715,142.933-96.363
							c55.442-23.449,114.333-35.339,175.036-35.339c93.04,0,174.798,23.528,243.001,69.931
							c66.783,45.437,119.408,111.967,156.414,197.743c1.046,2.424,0.639,5.23-1.054,7.258
							c-103.27,123.742-221.263,235.085-350.703,330.936c-130.637,96.737-272.662,177.479-422.13,239.984
							C3277.831,4364.71,3276.913,4364.89,3275.997,4364.89z M3217.492,3967.591l63.942,380.416
							c291.186-123.305,552.534-316.816,756.575-560.235c-73.523-167.038-206.505-255.275-384.841-255.275
							C3413.127,3532.496,3217.803,3727.619,3217.492,3967.591z"/></g><g><path fill="#fff" d="M2014.761,3559.896c-2.419,0-4.772-1.255-6.068-3.501l-59.913-103.772
						c-1.933-3.348-0.786-7.629,2.562-9.562c3.348-1.93,7.629-0.786,9.562,2.562l59.913,103.772
						c1.933,3.348,0.786,7.629-2.562,9.562C2017.153,3559.594,2015.949,3559.896,2014.761,3559.896z"/><path fill="#fff" d="M2014.749,3559.896c-1.188,0-2.391-0.303-3.494-0.938c-3.348-1.934-4.495-6.215-2.562-9.562
						l78.502-135.97c1.933-3.348,6.214-4.492,9.562-2.562c3.348,1.934,4.495,6.215,2.562,9.562l-78.502,135.97
						C2019.521,3558.641,2017.167,3559.896,2014.749,3559.896z"/><path fill="#fff" d="M2521.61,3559.896c-2.42,0-4.772-1.255-6.069-3.501L2340.838,3253.8
						c-1.933-3.348-0.786-7.629,2.562-9.562c3.348-1.93,7.629-0.786,9.562,2.562l174.704,302.596
						c1.933,3.348,0.785,7.629-2.562,9.562C2524.001,3559.594,2522.798,3559.896,2521.61,3559.896z"/><path fill="#fff" d="M2521.597,3559.896c-1.188,0-2.391-0.303-3.493-0.938c-3.348-1.934-4.495-6.215-2.562-9.562
						l172.804-299.304c1.934-3.347,6.215-4.492,9.562-2.562c3.348,1.934,4.495,6.215,2.562,9.562l-172.804,299.304
						C2526.369,3558.642,2524.016,3559.896,2521.597,3559.896z"/><path fill="#fff" d="M3028.46,3559.896c-2.42,0-4.772-1.255-6.069-3.501L2847.687,3253.8
						c-1.933-3.348-0.785-7.629,2.562-9.562c3.35-1.932,7.629-0.786,9.562,2.562l174.704,302.596
						c1.933,3.348,0.785,7.629-2.562,9.562C3030.851,3559.594,3029.647,3559.896,3028.46,3559.896z"/><path fill="#fff" d="M3028.446,3559.896c-1.188,0-2.391-0.303-3.493-0.938c-3.348-1.934-4.495-6.215-2.562-9.562
						l85.629-148.312c1.934-3.349,6.215-4.493,9.562-2.562c3.348,1.934,4.495,6.215,2.562,9.562l-85.629,148.312
						C3033.219,3558.642,3030.865,3559.896,3028.446,3559.896z"/><path fill="#fff" d="M3535.309,3559.896c-2.42,0-4.772-1.255-6.069-3.501l-38.841-67.275
						c-1.933-3.348-0.785-7.629,2.562-9.562c3.35-1.932,7.629-0.785,9.562,2.562l38.841,67.275c1.933,3.348,0.785,7.629-2.562,9.562
						C3537.699,3559.594,3536.496,3559.896,3535.309,3559.896z"/><path fill="#fff" d="M3535.295,3559.896c-1.188,0-2.391-0.303-3.493-0.938c-3.348-1.934-4.495-6.215-2.562-9.562
						l31.363-54.321c1.934-3.348,6.216-4.493,9.562-2.562c3.348,1.934,4.495,6.215,2.562,9.562l-31.363,54.321
						C3540.067,3558.642,3537.714,3559.896,3535.295,3559.896z"/><path fill="#fff" d="M3788.727,3998.84c-2.501,0-4.812-1.334-6.062-3.5l-253.425-438.944
						c-1.933-3.348-0.785-7.629,2.562-9.562c3.35-1.931,7.629-0.785,9.562,2.562l247.362,428.444l179.825-311.467
						c1.934-3.348,6.214-4.494,9.562-2.562c3.348,1.934,4.495,6.215,2.562,9.562l-185.888,321.967
						C3793.538,3997.506,3791.228,3998.84,3788.727,3998.84z"/><path fill="#fff" d="M3281.878,3998.84c-2.501,0-4.812-1.334-6.062-3.5l-253.425-438.944
						c-1.933-3.348-0.785-7.629,2.562-9.562c3.349-1.931,7.629-0.785,9.562,2.562l247.362,428.444l247.361-428.444
						c1.934-3.347,6.213-4.493,9.562-2.562c3.348,1.934,4.495,6.215,2.562,9.562L3287.94,3995.34
						C3286.689,3997.506,3284.379,3998.84,3281.878,3998.84z"/><path fill="#fff" d="M2775.028,3998.84c-2.501,0-4.812-1.334-6.062-3.5l-253.425-438.944
						c-1.933-3.348-0.785-7.629,2.562-9.562c3.35-1.931,7.63-0.785,9.562,2.562l247.362,428.444l247.362-428.444
						c1.934-3.347,6.215-4.492,9.562-2.562c3.348,1.934,4.495,6.215,2.562,9.562l-253.425,438.944
						C2779.84,3997.506,2777.529,3998.84,2775.028,3998.84z"/><path fill="#fff" d="M2268.179,3998.84c-2.501,0-4.812-1.334-6.062-3.5l-253.424-438.944
						c-1.933-3.348-0.786-7.629,2.562-9.562c3.347-1.93,7.629-0.786,9.562,2.562l247.362,428.444l247.362-428.444
						c1.934-3.347,6.214-4.493,9.562-2.562c3.348,1.934,4.495,6.215,2.562,9.562l-253.425,438.944
						C2272.991,3997.506,2270.68,3998.84,2268.179,3998.84z"/><path fill="#fff" d="M1761.33,3998.84c-2.501,0-4.812-1.334-6.062-3.5l-253.424-438.944
						c-1.933-3.348-0.786-7.629,2.562-9.562c3.347-1.93,7.629-0.786,9.562,2.562l247.362,428.444l247.363-428.444
						c1.933-3.348,6.215-4.493,9.562-2.562c3.348,1.934,4.495,6.215,2.562,9.562l-253.425,438.944
						C1766.142,3997.506,1763.831,3998.84,1761.33,3998.84z"/><path fill="#fff" d="M1254.481,3998.84c-2.501,0-4.812-1.334-6.062-3.5l-32.288-55.924
						c-1.933-3.348-0.786-7.629,2.562-9.562c3.348-1.93,7.629-0.786,9.562,2.562l26.226,45.424l247.363-428.444
						c1.933-3.348,6.215-4.493,9.562-2.562c3.348,1.934,4.495,6.215,2.562,9.562l-253.425,438.944
						C1259.293,3997.506,1256.982,3998.84,1254.481,3998.84z"/><path fill="#fff" d="M1507.912,4068.862c-2.419,0-4.772-1.255-6.068-3.501l-201.14-348.385
						c-1.933-3.348-0.786-7.629,2.562-9.562c3.348-1.931,7.63-0.786,9.562,2.562l201.14,348.385
						c1.933,3.348,0.786,7.629-2.562,9.562C1510.304,4068.56,1509.1,4068.862,1507.912,4068.862z"/><path fill="#fff" d="M2014.761,4068.862c-2.419,0-4.772-1.255-6.068-3.501l-247.363-428.443l-247.362,428.443
						c-1.933,3.348-6.215,4.493-9.562,2.562c-3.348-1.934-4.495-6.215-2.562-9.562l253.424-438.943c1.25-2.166,3.561-3.5,6.062-3.5
						s4.812,1.334,6.062,3.5l253.425,438.943c1.933,3.348,0.786,7.629-2.562,9.562
						C2017.153,4068.56,2015.949,4068.862,2014.761,4068.862z"/><path fill="#fff" d="M2521.61,4068.862c-2.42,0-4.772-1.255-6.069-3.501l-247.362-428.443l-247.362,428.443
						c-1.933,3.348-6.215,4.493-9.562,2.562c-3.348-1.934-4.495-6.215-2.562-9.562l253.424-438.943c1.25-2.166,3.561-3.5,6.062-3.5
						s4.812,1.334,6.062,3.5l253.425,438.943c1.933,3.348,0.785,7.629-2.562,9.562
						C2524.001,4068.56,2522.798,4068.862,2521.61,4068.862z"/><path fill="#fff" d="M3028.46,4068.862c-2.42,0-4.772-1.255-6.069-3.501l-247.362-428.443l-247.362,428.443
						c-1.933,3.348-6.213,4.493-9.562,2.562c-3.348-1.934-4.495-6.215-2.562-9.562l253.425-438.943c1.251-2.166,3.562-3.5,6.062-3.5
						s4.812,1.334,6.062,3.5l253.425,438.943c1.933,3.348,0.785,7.629-2.562,9.562
						C3030.851,4068.56,3029.647,4068.862,3028.46,4068.862z"/><path fill="#fff" d="M3535.309,4068.862c-2.42,0-4.772-1.255-6.069-3.501l-247.361-428.443l-247.362,428.443
						c-1.934,3.347-6.214,4.493-9.562,2.562c-3.348-1.934-4.495-6.215-2.562-9.562l253.425-438.943c1.251-2.166,3.562-3.5,6.062-3.5
						s4.812,1.334,6.062,3.5l253.424,438.943c1.933,3.348,0.785,7.629-2.562,9.562
						C3537.699,4068.56,3536.496,4068.862,3535.309,4068.862z"/><path fill="#fff" d="M3535.295,4068.862c-1.188,0-2.391-0.303-3.493-0.938c-3.348-1.934-4.495-6.215-2.562-9.562
						l253.425-438.943c1.247-2.16,3.549-3.493,6.043-3.5c0.007,0,0.014,0,0.02,0c2.486,0,4.787,1.319,6.043,3.467l160.331,274.21
						c1.951,3.337,0.828,7.625-2.51,9.576c-3.34,1.951-7.626,0.826-9.576-2.51l-154.25-263.81l-247.4,428.51
						C3540.067,4067.606,3537.714,4068.862,3535.295,4068.862z"/><path fill="#fff" d="M3605.121,4189.78c-2.42,0-4.772-1.255-6.069-3.501l-69.812-120.918
						c-1.933-3.348-0.785-7.629,2.562-9.562c3.35-1.932,7.629-0.785,9.562,2.562l69.812,120.918
						c1.933,3.348,0.785,7.629-2.562,9.562C3607.512,4189.478,3606.309,4189.78,3605.121,4189.78z"/><path fill="#fff" d="M3396.114,4309.932c-1.188,0-2.391-0.303-3.493-0.938c-3.348-1.934-4.495-6.215-2.562-9.562
						l139.181-241.069c1.934-3.347,6.215-4.492,9.562-2.562c3.348,1.934,4.495,6.215,2.562,9.562l-139.181,241.069
						C3400.887,4308.676,3398.533,4309.932,3396.114,4309.932z"/><path fill="#fff" d="M3213.729,4389.759c-2.42,0-4.772-1.255-6.069-3.501l-185.27-320.896
						c-1.933-3.348-0.785-7.629,2.562-9.562c3.349-1.932,7.629-0.785,9.562,2.562l185.27,320.896
						c1.933,3.348,0.785,7.629-2.562,9.562C3216.12,4389.456,3214.917,4389.759,3213.729,4389.759z"/><path fill="#fff" d="M2775.028,4501.364c-2.484,0-4.783-1.317-6.04-3.461L2515.564,4065.4
						c-1.955-3.336-0.835-7.624,2.5-9.578c3.336-1.958,7.623-0.836,9.579,2.5l247.385,422.195l247.385-422.195
						c1.956-3.336,6.243-4.456,9.579-2.5c3.335,1.954,4.455,6.242,2.5,9.578l-253.424,432.503
						C2779.812,4500.047,2777.513,4501.364,2775.028,4501.364z"/><path fill="#fff" d="M2268.179,4507.806c-2.501,0-4.812-1.334-6.062-3.5l-253.424-438.944
						c-1.933-3.348-0.786-7.629,2.562-9.562c3.347-1.93,7.629-0.785,9.562,2.562l247.362,428.444l247.362-428.444
						c1.934-3.347,6.215-4.492,9.562-2.562c3.348,1.934,4.495,6.215,2.562,9.562l-253.425,438.944
						C2272.991,4506.472,2270.68,4507.806,2268.179,4507.806z"/><path fill="#fff" d="M1821.945,4402.809c-1.188,0-2.391-0.303-3.494-0.938c-3.348-1.934-4.495-6.215-2.562-9.562
						l192.804-333.946c1.933-3.348,6.215-4.492,9.562-2.562c3.348,1.934,4.495,6.215,2.562,9.562l-192.804,333.946
						C1826.717,4401.554,1824.364,4402.809,1821.945,4402.809z"/><path fill="#fff" d="M1663.505,4338.357c-2.419,0-4.772-1.255-6.068-3.501l-155.593-269.495
						c-1.933-3.348-0.786-7.629,2.562-9.562c3.347-1.93,7.629-0.785,9.562,2.562l155.593,269.495
						c1.933,3.348,0.786,7.629-2.562,9.562C1665.896,4338.055,1664.692,4338.357,1663.505,4338.357z"/><path fill="#fff" d="M1426.429,4209.975c-1.188,0-2.391-0.303-3.494-0.938c-3.348-1.934-4.495-6.215-2.562-9.562
						l81.471-141.112c1.933-3.348,6.215-4.492,9.562-2.562c3.348,1.934,4.495,6.215,2.562,9.562l-81.471,141.112
						C1431.201,4208.719,1428.848,4209.975,1426.429,4209.975z"/></g></g></g></svg>