<svg width="3894" height="3894" viewBox="0 0 3894 3894" fill="none" xmlns="http://www.w3.org/2000/svg">
<path d="M1947 3882.87C2498.26 3882.87 2995.7 3652.46 3348.27 3282.69C3141.13 3024.29 2824.88 2856.69 2467.38 2853.4C2461.35 2853.35 2455.3 2853.32 2449.22 2853.32H1906.16C1737.47 2853.32 1590.48 2874.25 1460.79 2912.34C1156.02 3001.84 923.682 3233.53 819.857 3521.04C1137.32 3748.77 1526.49 3882.87 1947 3882.87Z" fill="white"/>
<path d="M1947 3893.1C1740.1 3893.1 1536.42 3860.79 1341.61 3797.08C1153.18 3735.45 975.632 3645.37 813.895 3529.35C810.176 3526.68 808.682 3521.87 810.236 3517.57C836.334 3445.29 870.694 3376.02 912.359 3311.66C954.026 3247.31 1002.98 3187.89 1057.88 3135.07C1113.52 3081.52 1175.3 3034.72 1241.5 2995.95C1309.41 2956.19 1382.22 2924.75 1457.9 2902.53C1524.09 2883.09 1594.6 2868.25 1667.48 2858.41C1742.8 2848.24 1823.1 2843.09 1906.16 2843.09H2449.21C2455.33 2843.09 2461.48 2843.12 2467.47 2843.17C2555.95 2843.99 2643.98 2854.89 2729.12 2875.59C2811.83 2895.69 2892.46 2925.18 2968.77 2963.23C3043.6 3000.53 3114.65 3046.25 3179.95 3099.11C3244.71 3151.54 3304.03 3211.15 3356.25 3276.29C3359.45 3280.29 3359.21 3286.04 3355.67 3289.75C3267.07 3382.67 3168.93 3467.15 3063.98 3540.84C2958.08 3615.19 2844.45 3679.11 2726.24 3730.82C2605.84 3783.48 2479.61 3823.95 2351.04 3851.1C2219.06 3878.97 2083.12 3893.1 1947 3893.1ZM832.136 3517.24C1159.02 3749.78 1544.35 3872.64 1947 3872.64C2475.78 3872.64 2968.21 3663.01 3334.66 3282.11C3120.49 3019.13 2804.88 2866.73 2467.28 2863.63C2461.35 2863.57 2455.27 2863.55 2449.21 2863.55H1906.16C1744.97 2863.55 1596.1 2883.26 1463.67 2922.15C1174.25 3007.15 938.69 3229.31 832.136 3517.24Z" fill="#212121"/>
<path d="M923.7 2440.81C927.16 2285.71 678.189 2207.12 683.488 1958.29C686.276 1651.48 980.258 1538.89 1009.48 1365.93C1038.71 1192.97 796.6 925.149 1110.85 662.066C1425.1 398.983 1791.71 619.712 1955.16 670.856C2182.39 744.814 2734.93 481.427 3007.6 969.444C3217.83 1366.27 2982.48 1612.37 2972.48 1907.96C2962.48 2203.55 3189.1 2263.19 3074.68 2725.59L826.38 2767.72C812.518 2543.1 918.042 2559.45 923.7 2440.81Z" fill="#212121"/>
<path d="M826.377 2777.95C820.985 2777.95 816.505 2773.75 816.171 2768.35C812.393 2707.13 817.038 2657.84 830.372 2617.67C842.183 2582.09 859.249 2558.15 874.308 2537.03C894.164 2509.17 911.315 2485.11 913.476 2440.45C914.85 2376.09 869.362 2324.96 816.698 2265.76C782.091 2226.86 746.306 2186.63 718.609 2137.35C686.742 2080.65 671.908 2022.02 673.261 1958.12C674.03 1874.93 695.791 1798.43 739.786 1724.23C778.03 1659.74 828.446 1604.92 872.927 1556.55C934.704 1489.37 988.055 1431.35 999.398 1364.23C1008 1313.32 991.361 1251.14 973.744 1185.31C953.26 1108.77 930.043 1022.02 939.981 931.967C951.452 828.027 1005.2 737.176 1104.28 654.222C1167.14 601.597 1236.56 564.66 1310.61 544.436C1374.34 527.028 1443.56 521.498 1516.33 528.002C1649.3 539.884 1774.38 589.869 1865.71 626.365C1901.48 640.662 1932.38 653.009 1958.21 661.092C1958.25 661.104 1958.29 661.115 1958.32 661.128C2024.28 682.595 2119.18 674.737 2229.06 665.64C2358.97 654.886 2506.21 642.695 2646.11 676.379C2808.96 715.587 2930.13 809.817 3016.52 964.454C3016.56 964.52 3016.6 964.587 3016.63 964.655C3050.95 1029.42 3074.6 1091.75 3088.95 1155.22C3101.72 1211.7 3106.73 1267.61 3104.28 1326.14C3099.75 1434.25 3070.04 1532.98 3041.32 1628.47C3012.84 1723.11 2985.94 1812.51 2982.7 1908.31C2978.81 2023.42 3011.32 2101.64 3045.74 2184.46C3072.06 2247.77 3099.27 2313.25 3111.13 2398.25C3124.5 2494.05 3115.82 2601.93 3084.61 2728.05C3083.5 2732.55 3079.5 2735.73 3074.87 2735.82L826.57 2777.95C826.506 2777.95 826.441 2777.95 826.377 2777.95ZM1457.89 546.487C1345.13 546.487 1227.47 577.777 1117.41 669.908C904.652 848.028 951.857 1024.41 993.505 1180.02C1011.71 1248.07 1028.91 1312.33 1019.57 1367.64C1013.89 1401.26 998.782 1434.34 972.031 1471.73C948.618 1504.46 919.166 1536.49 887.985 1570.4C797.686 1668.59 695.338 1779.88 693.715 1958.39C693.715 1958.43 693.715 1958.47 693.714 1958.51C690.839 2093.51 765.823 2177.8 831.981 2252.16C885.238 2312.02 935.544 2368.57 933.926 2441.04C933.925 2441.13 933.922 2441.21 933.917 2441.3C931.497 2492.05 911.809 2519.67 890.965 2548.9C862.443 2588.91 830.211 2634.13 836.054 2757.31L3066.62 2715.51C3131.94 2445.16 3078.53 2316.63 3026.85 2192.31C2991.55 2107.38 2958.21 2027.17 2962.26 1907.61C2965.59 1809.16 2992.86 1718.53 3021.73 1622.57C3078.76 1433.02 3137.74 1237.02 2998.61 974.34C2810.64 638.052 2489.1 664.638 2230.75 686.028C2118.69 695.305 2021.92 703.319 1952.06 680.603C1925.48 672.285 1894.26 659.808 1858.11 645.362C1754.49 603.952 1610.69 546.487 1457.89 546.487Z" fill="#212121"/>
<path d="M2244.81 2936.74C2245.1 3089.19 1719.15 3115.77 1718.81 2937.74L1718.01 2516.93L2244.01 2515.93L2244.81 2936.74Z" fill="white"/>
<path d="M1965.67 3071.61C1898.2 3071.61 1836.37 3060.79 1791.44 3041.11C1737.32 3017.4 1708.66 2981.66 1708.58 2937.76L1707.78 2516.95C1707.77 2511.3 1712.34 2506.71 1717.99 2506.7L2243.99 2505.7C2244 2505.7 2244.01 2505.7 2244.01 2505.7C2249.65 2505.7 2254.23 2510.27 2254.24 2515.91L2255.04 2936.72C2255.08 2958.53 2245.94 2978.75 2227.85 2996.81C2211.97 3012.66 2189.44 3026.57 2160.87 3038.13C2108.63 3059.27 2037.92 3071.48 1966.87 3071.61C1966.47 3071.61 1966.07 3071.61 1965.67 3071.61ZM1728.25 2527.14L1729.03 2937.72C1729.18 3016.14 1847.82 3051.16 1965.7 3051.16C1966.08 3051.16 1966.45 3051.16 1966.83 3051.15C2035.36 3051.02 2103.28 3039.37 2153.19 3019.17C2179.21 3008.64 2199.46 2996.24 2213.39 2982.33C2227.48 2968.26 2234.61 2952.93 2234.58 2936.75L2233.8 2526.18L1728.25 2527.14Z" fill="#212121"/>
<path d="M2143.22 2595.09C1972.16 2630.33 1793.79 2632 1629.37 2603.76C1426.94 2568.99 1278.53 2394.04 1276.09 2188.65L1269.04 1594.5C1266.25 1359 1454.9 1165.83 1690.4 1163.03L2042.8 1158.85C2278.3 1156.06 2471.47 1344.71 2474.27 1580.21L2481.3 2172.81C2483.71 2376.17 2342.41 2554.05 2143.22 2595.09Z" fill="white"/>
<path d="M1862.66 2633.66C1783.58 2633.66 1704.65 2627.06 1627.64 2613.84C1420.51 2578.27 1268.36 2399.5 1265.87 2188.77L1258.82 1594.62C1258.12 1535.68 1268.99 1478.36 1291.12 1424.25C1312.5 1371.99 1343.42 1324.93 1383.05 1284.35C1422.67 1243.78 1468.99 1211.75 1520.72 1189.14C1574.29 1165.73 1631.34 1153.5 1690.28 1152.81L2042.68 1148.62C2101.63 1147.92 2158.94 1158.79 2213.05 1180.93C2265.31 1202.3 2312.37 1233.23 2352.95 1272.85C2393.52 1312.47 2425.55 1358.79 2448.16 1410.53C2471.57 1464.09 2483.8 1521.14 2484.5 1580.08L2491.52 2172.69C2492.13 2223.81 2483.93 2274.11 2467.16 2322.18C2450.82 2369.01 2426.83 2412.42 2395.85 2451.2C2364.83 2490.05 2327.8 2522.98 2285.82 2549.08C2242.59 2575.95 2195.31 2594.8 2145.29 2605.11C2052.99 2624.12 1957.72 2633.66 1862.66 2633.66ZM2047.99 1169.05C2046.3 1169.05 2044.62 1169.06 2042.92 1169.08L1690.52 1173.26C1461.04 1175.98 1276.55 1364.89 1279.27 1594.38L1286.32 2188.53C1288.7 2389.39 1433.71 2559.78 1631.11 2593.68C1798.19 2622.37 1974.56 2619.4 2141.16 2585.07C2334.68 2545.2 2473.43 2371.87 2471.07 2172.93L2464.04 1580.33C2462.72 1469.16 2418.19 1365.16 2338.65 1287.49C2260.33 1211 2157.27 1169.05 2047.99 1169.05Z" fill="#212121"/>
<path d="M2456.77 2081.83L2598.93 2080.42C2713.47 2079.06 2805.25 1985.08 2803.89 1870.54C2802.53 1756 2708.55 1664.29 2594.01 1665.64L2451.85 1667.05" fill="white"/>
<path d="M2456.77 2092.06C2451.17 2092.06 2446.6 2087.54 2446.54 2081.93C2446.49 2076.28 2451.02 2071.66 2456.67 2071.6L2598.83 2070.19C2651.48 2069.57 2700.75 2048.47 2737.56 2010.78C2774.36 1973.09 2794.29 1923.33 2793.66 1870.66C2793.04 1818 2771.94 1768.74 2734.25 1731.95C2696.56 1695.16 2646.8 1675.25 2594.13 1675.87L2451.95 1677.28C2451.92 1677.28 2451.88 1677.28 2451.85 1677.28C2446.25 1677.28 2441.68 1672.77 2441.62 1667.15C2441.57 1661.5 2446.1 1656.88 2451.75 1656.82L2593.91 1655.42C2652.03 1654.72 2706.94 1676.71 2748.54 1717.31C2790.14 1757.92 2813.43 1812.29 2814.12 1870.42C2814.81 1928.55 2792.81 1983.47 2752.19 2025.07C2711.57 2066.67 2657.18 2089.96 2599.05 2090.65L2456.87 2092.05C2456.84 2092.06 2456.81 2092.06 2456.77 2092.06Z" fill="#212121"/>
<path d="M2579.22 1990.67C2573.63 1990.67 2569.06 1986.17 2569 1980.57C2568.93 1974.92 2573.45 1970.28 2579.1 1970.22L2597.62 1970C2651.11 1969.36 2694.1 1925.34 2693.47 1871.85C2692.84 1818.79 2649.44 1776.06 2596.49 1776.06C2596.1 1776.06 2595.72 1776.06 2595.32 1776.07L2576.8 1776.29C2571.14 1776.37 2566.52 1771.83 2566.45 1766.18C2566.38 1760.53 2570.91 1755.9 2576.56 1755.83L2595.08 1755.61C2595.55 1755.61 2596.03 1755.6 2596.5 1755.6C2660.62 1755.6 2713.16 1807.35 2713.92 1871.61C2714.29 1902.94 2702.41 1932.56 2680.47 1955.03C2658.53 1977.5 2629.19 1990.08 2597.86 1990.45L2579.34 1990.67C2579.3 1990.67 2579.26 1990.67 2579.22 1990.67Z" fill="#212121"/>
<path d="M1557.45 1868.24C1589.32 1836.37 1589.32 1784.7 1557.45 1752.83C1525.58 1720.96 1473.91 1720.96 1442.04 1752.83C1410.17 1784.7 1410.17 1836.38 1442.04 1868.24C1473.91 1900.11 1525.58 1900.11 1557.45 1868.24Z" fill="#212121"/>
<path d="M2058.8 1867.29C2090.67 1835.42 2090.67 1783.75 2058.8 1751.88C2026.93 1720.01 1975.25 1720.01 1943.39 1751.88C1911.52 1783.75 1911.52 1835.43 1943.39 1867.29C1975.26 1899.16 2026.93 1899.16 2058.8 1867.29Z" fill="#212121"/>
<path d="M2141.31 1659.49L1892.48 1659.96C1861.81 1660.02 1836.91 1635.21 1836.85 1604.55C1836.79 1573.88 1861.6 1548.98 1892.27 1548.92L2141.1 1548.45C2171.76 1548.39 2196.67 1573.2 2196.72 1603.86C2196.78 1634.52 2171.97 1659.43 2141.31 1659.49Z" fill="#212121"/>
<path d="M1605.51 1660.5L1356.68 1660.98C1326.02 1661.04 1301.11 1636.23 1301.05 1605.56C1301 1574.9 1325.81 1550 1356.47 1549.94L1605.3 1549.47C1635.97 1549.41 1660.87 1574.22 1660.93 1604.88C1660.99 1635.54 1636.18 1660.45 1605.51 1660.5Z" fill="#212121"/>
<path d="M1679.44 2119.29C1676.74 2119.29 1674.14 2118.22 1672.22 2116.31C1670.3 2114.4 1669.22 2111.8 1669.21 2109.08C1669.07 2033.85 1682.41 1962.57 1693.63 1916.02C1705.79 1865.57 1717.83 1833.28 1718.34 1831.93C1720.32 1826.64 1726.22 1823.97 1731.51 1825.95C1736.79 1827.94 1739.47 1833.83 1737.49 1839.12C1737.02 1840.37 1691.7 1962.82 1689.73 2098.81L1783.1 2098.64C1783.11 2098.64 1783.12 2098.64 1783.12 2098.64C1788.76 2098.64 1793.34 2103.2 1793.35 2108.85C1793.36 2114.49 1788.79 2119.08 1783.14 2119.09L1679.46 2119.29C1679.45 2119.29 1679.45 2119.29 1679.44 2119.29Z" fill="#212121"/>
<path d="M2057.97 2048.4C2056.46 2048.4 2054.92 2048.06 2053.47 2047.35C2048.4 2044.85 2046.31 2038.72 2048.8 2033.65L2089.57 1950.71C2092.06 1945.64 2098.19 1943.55 2103.26 1946.04C2108.33 1948.53 2110.42 1954.67 2107.93 1959.74L2067.16 2042.68C2065.38 2046.3 2061.75 2048.4 2057.97 2048.4Z" fill="#212121"/>
<path d="M2109.17 2048.3C2107.65 2048.3 2106.11 2047.96 2104.66 2047.25C2099.59 2044.76 2097.5 2038.63 2100 2033.56L2140.76 1950.61C2143.25 1945.55 2149.38 1943.45 2154.45 1945.95C2159.52 1948.44 2161.61 1954.57 2159.12 1959.64L2118.35 2042.58C2116.58 2046.2 2112.94 2048.3 2109.17 2048.3Z" fill="#212121"/>
<path d="M2160.36 2048.2C2158.85 2048.2 2157.31 2047.86 2155.86 2047.15C2150.79 2044.66 2148.7 2038.53 2151.19 2033.46L2191.95 1950.52C2194.45 1945.45 2200.57 1943.36 2205.65 1945.85C2210.71 1948.34 2212.8 1954.47 2210.31 1959.54L2169.55 2042.48C2167.77 2046.1 2164.14 2048.2 2160.36 2048.2Z" fill="#212121"/>
<path d="M1490.27 2049.48C1486.51 2049.48 1482.89 2047.39 1481.1 2043.79L1440.02 1961.01C1437.51 1955.95 1439.58 1949.81 1444.64 1947.3C1449.7 1944.79 1455.83 1946.85 1458.34 1951.91L1499.42 2034.7C1501.94 2039.76 1499.87 2045.9 1494.81 2048.41C1493.35 2049.13 1491.8 2049.48 1490.27 2049.48Z" fill="#212121"/>
<path d="M1439.07 2049.57C1435.31 2049.57 1431.69 2047.49 1429.9 2043.89L1388.82 1961.1C1386.31 1956.04 1388.38 1949.9 1393.44 1947.39C1398.5 1944.88 1404.64 1946.95 1407.15 1952.01L1448.23 2034.8C1450.74 2039.86 1448.67 2046 1443.61 2048.51C1442.15 2049.23 1440.6 2049.57 1439.07 2049.57Z" fill="#212121"/>
<path d="M1387.88 2049.67C1384.12 2049.67 1380.5 2047.59 1378.71 2043.99L1337.63 1961.2C1335.12 1956.14 1337.19 1950 1342.25 1947.49C1347.31 1944.98 1353.44 1947.05 1355.96 1952.11L1397.04 2034.9C1399.55 2039.96 1397.48 2046.09 1392.42 2048.6C1390.96 2049.33 1389.41 2049.67 1387.88 2049.67Z" fill="#212121"/>
<path d="M1807.89 2329.95C1853.16 2322.24 1885.05 2287.76 1879.12 2252.94C1873.19 2218.11 1831.68 2196.14 1786.41 2203.85C1741.14 2211.56 1709.25 2246.04 1715.18 2280.86C1721.11 2315.68 1762.62 2337.66 1807.89 2329.95Z" fill="white"/>
<path d="M1789.86 2341.64C1772.68 2341.64 1756.2 2337.79 1742.08 2330.31C1721.7 2319.52 1708.6 2302.54 1705.18 2282.5C1701.77 2262.46 1708.51 2242.09 1724.17 2225.16C1739.15 2208.97 1760.67 2197.79 1784.78 2193.68C1808.88 2189.58 1832.9 2193 1852.39 2203.32C1872.77 2214.11 1885.87 2231.09 1889.29 2251.13C1892.7 2271.18 1885.96 2291.54 1870.3 2308.47C1855.32 2324.66 1833.8 2335.84 1809.69 2339.95C1803.04 2341.08 1796.4 2341.64 1789.86 2341.64ZM1804.65 2212.44C1799.29 2212.44 1793.78 2212.9 1788.21 2213.85C1768.53 2217.2 1751.12 2226.15 1739.19 2239.05C1727.94 2251.21 1723.03 2265.42 1725.35 2279.06C1727.67 2292.7 1737.02 2304.48 1751.66 2312.23C1767.19 2320.46 1786.58 2323.14 1806.26 2319.78C1845.9 2313.03 1874.1 2283.78 1869.12 2254.57C1864.85 2229.47 1837.43 2212.44 1804.65 2212.44Z" fill="#212121"/>
<path d="M1762.2 2292.97C1709.99 2292.97 1664.49 2278.96 1646.64 2273.47C1641.25 2271.81 1638.22 2266.09 1639.88 2260.69C1641.54 2255.29 1647.26 2252.26 1652.66 2253.92C1769.71 2289.94 1861.33 2272.55 1924.99 2202.24C1928.78 2198.05 1935.24 2197.73 1939.43 2201.52C1943.62 2205.31 1943.94 2211.78 1940.15 2215.96C1896.36 2264.33 1840.17 2290.17 1773.13 2292.76C1769.46 2292.9 1765.81 2292.97 1762.2 2292.97Z" fill="#212121"/>
<path d="M1947 3882.87C2530.24 3882.87 3053.22 3624.94 3408.13 3216.93C3309.29 3109.66 3186.35 3021.46 3055.6 2958.56C2864.13 2866.46 2576.54 2843.44 2279.45 2843.44C2279.45 2843.44 2281.31 3067.5 1969.37 3067.5C1657.42 3067.5 1690.84 2854.58 1690.84 2854.58C1504.04 2875.12 1107.82 2965.44 986.671 3033.13C948.77 3054.31 914.117 3077.46 882.694 3102.33C776.578 3173.18 694.832 3277.93 641.318 3376.25C985.565 3690.91 1443.86 3882.87 1947 3882.87Z" fill="#212121"/>
<path d="M1947 3893.1C1699.69 3893.1 1458.73 3847.33 1230.81 3757.07C1121.07 3713.61 1014.61 3659.69 914.37 3596.82C815.187 3534.61 720.996 3462.94 634.416 3383.8C630.944 3380.62 630.084 3375.49 632.333 3371.36C695.205 3255.85 781.965 3157.39 876.666 3094.05C908.635 3068.78 943.966 3045.28 981.68 3024.21C1104.85 2955.38 1504.19 2864.81 1689.72 2844.42C1692.89 2844.07 1696.04 2845.22 1698.24 2847.52C1700.44 2849.82 1701.44 2853.02 1700.95 2856.17C1700.85 2856.82 1691.19 2924.3 1739.05 2980.02C1783.07 3031.28 1860.56 3057.27 1969.36 3057.27C2076.34 3057.27 2157.01 3030.71 2209.15 2978.33C2240.28 2947.06 2254.95 2912.19 2261.77 2888.43C2269.22 2862.47 2269.22 2843.69 2269.22 2843.51C2269.21 2840.79 2270.28 2838.16 2272.2 2836.24C2274.12 2834.31 2276.73 2833.21 2279.45 2833.21C2647.28 2833.21 2895.32 2870.12 3060.03 2949.35C3195.67 3014.59 3318.64 3104.73 3415.65 3210C3419.18 3213.84 3419.27 3219.71 3415.85 3223.65C3326.72 3326.11 3226.6 3419.52 3118.28 3501.28C3009.12 3583.67 2891.1 3654.62 2767.5 3712.18C2641.61 3770.8 2509.11 3815.88 2373.67 3846.18C2234.49 3877.31 2090.94 3893.1 1947 3893.1ZM654.167 3374.11C1008.89 3695.67 1467.68 3872.64 1947 3872.64C2501.4 3872.64 3028.39 3633.85 3394.36 3217.14C3300.08 3116.63 3181.6 3030.52 3051.17 2967.78C2890.76 2890.62 2648.46 2854.32 2289.17 2853.68C2287.08 2877.79 2276.56 2939.41 2223.96 2992.46C2167.85 3049.04 2082.19 3077.72 1969.37 3077.72C1854.12 3077.72 1771.33 3049.24 1723.29 2993.06C1682.22 2945.05 1678.75 2890.71 1679.64 2866.17C1490.93 2888.86 1110.23 2975.81 991.66 3042.06C954.769 3062.68 920.243 3085.65 889.042 3110.35C888.826 3110.52 888.603 3110.68 888.374 3110.83C798.161 3171.07 715.22 3264.36 654.167 3374.11Z" fill="#212121"/>
<path d="M1924.24 3049.2C1904.95 3169.68 1784.92 3262.46 1639.73 3262.46C1481.11 3262.46 1363.65 3143.8 1408.47 3015.09C1445.58 2908.56 1583.94 2859.8 1718.62 2838.7C1718.62 2838.7 1715.41 3034.06 1924.24 3049.2Z" fill="white"/>
<path d="M1639.73 3272.69C1594.37 3272.69 1550.12 3263.09 1511.76 3244.93C1474.45 3227.26 1443.33 3201.88 1421.78 3171.55C1387.75 3123.67 1379.59 3066.91 1398.81 3011.73C1416.73 2960.27 1458.3 2917.87 1522.37 2885.72C1573.52 2860.04 1639.02 2840.82 1717.03 2828.6C1720.02 2828.13 1723.05 2829 1725.33 2830.98C1727.61 2832.96 1728.89 2835.85 1728.84 2838.87C1728.84 2839.33 1728.47 2886.44 1752.62 2934.4C1784.55 2997.83 1842.54 3033.02 1924.98 3039C1927.84 3039.21 1930.48 3040.6 1932.26 3042.85C1934.04 3045.1 1934.8 3047.99 1934.34 3050.82C1924.53 3112.07 1889.39 3168.3 1835.37 3209.17C1781.22 3250.13 1711.75 3272.69 1639.73 3272.69ZM1708.85 2850.65C1637.94 2862.58 1578.33 2880.51 1531.54 2904C1472.4 2933.69 1434.24 2972.2 1418.13 3018.46C1401.15 3067.21 1408.37 3117.37 1438.45 3159.7C1479.01 3216.78 1556.14 3252.24 1639.73 3252.24C1773.21 3252.24 1888.11 3169.65 1912.11 3058.38C1867.5 3053.61 1829.2 3040.14 1798.13 3018.29C1771.01 2999.22 1749.42 2973.83 1733.96 2942.84C1715.2 2905.22 1710.18 2868.9 1708.85 2850.65Z" fill="#212121"/>
<path d="M1924.25 3049.2C1946.6 3169.68 2085.63 3262.47 2253.81 3262.47C2437.56 3262.47 2543.45 3096.79 2510.08 3007.78C2476.7 2918.78 2383.96 2865.52 2244.81 2834.35C2244.81 2834.35 2258.97 3049.2 1924.25 3049.2Z" fill="white"/>
<path d="M2253.81 3272.69C2171 3272.69 2091.07 3250.28 2028.75 3209.58C1966.27 3168.77 1925.58 3112.47 1914.19 3051.07C1913.64 3048.08 1914.44 3045 1916.38 3042.66C1918.33 3040.32 1921.21 3038.97 1924.25 3038.97C2045.51 3038.97 2133.52 3010.79 2185.81 2955.21C2237.92 2899.83 2234.65 2835.64 2234.61 2835C2234.41 2831.79 2235.73 2828.67 2238.18 2826.58C2240.63 2824.5 2243.91 2823.67 2247.05 2824.37C2320.69 2840.86 2378.1 2862.57 2422.58 2890.74C2470.03 2920.78 2502.69 2958.95 2519.66 3004.19C2527.45 3024.98 2528.51 3049.96 2522.72 3076.41C2517.09 3102.12 2505.11 3128.7 2488.07 3153.29C2464.34 3187.53 2431.97 3216.55 2394.48 3237.21C2351.73 3260.75 2304.4 3272.69 2253.81 3272.69ZM1936.96 3059.32C1950.17 3110.54 1986.33 3157.44 2039.93 3192.45C2098.97 3231 2174.92 3252.24 2253.81 3252.24C2341.97 3252.24 2423.26 3210.89 2471.26 3141.63C2502.51 3096.53 2513.72 3046.62 2500.5 3011.37C2471.27 2933.42 2390.85 2879.64 2254.85 2847.17C2253.34 2871 2244.71 2922.24 2201.06 2968.85C2175.62 2996.02 2142 3017.43 2101.11 3032.47C2055.53 3049.25 2000.36 3058.27 1936.96 3059.32Z" fill="#212121"/>
<path d="M1035.37 3542.2C1034.9 3542.2 1034.42 3542.16 1033.93 3542.09C1028.34 3541.31 1024.45 3536.13 1025.23 3530.54C1031.46 3486.38 1041.59 3442.58 1055.32 3400.36C1066.76 3365.17 1080.92 3330.46 1097.4 3297.2C1099.91 3292.14 1106.04 3290.07 1111.1 3292.58C1116.17 3295.09 1118.24 3301.22 1115.73 3306.29C1099.69 3338.66 1085.91 3372.44 1074.77 3406.68C1061.41 3447.78 1051.55 3490.41 1045.49 3533.39C1044.77 3538.51 1040.39 3542.2 1035.37 3542.2Z" fill="white"/>
<path d="M2956.03 3524.91C2950.92 3524.91 2946.51 3521.1 2945.89 3515.9C2940.96 3474.97 2933.81 3433.87 2924.64 3393.75C2913.57 3345.3 2899.28 3297.05 2882.16 3250.36C2880.21 3245.05 2882.94 3239.18 2888.24 3237.23C2893.54 3235.29 2899.42 3238.01 2901.36 3243.32C2918.78 3290.82 2933.32 3339.9 2944.59 3389.2C2953.92 3430.01 2961.19 3471.82 2966.2 3513.46C2966.87 3519.07 2962.87 3524.16 2957.26 3524.84C2956.85 3524.89 2956.44 3524.91 2956.03 3524.91Z" fill="white"/>
<path d="M1959.64 3827.57C1954.29 3827.57 1949.79 3823.41 1949.45 3818C1940.68 3680.93 1937.07 3541.89 1938.71 3404.74C1939.45 3343.18 1941.26 3280.89 1944.08 3219.58C1944.34 3213.94 1949.15 3209.6 1954.77 3209.84C1960.41 3210.1 1964.78 3214.88 1964.52 3220.52C1961.7 3281.6 1959.9 3343.66 1959.17 3404.99C1957.53 3541.62 1961.13 3680.14 1969.86 3816.69C1970.22 3822.33 1965.94 3827.19 1960.31 3827.55C1960.08 3827.57 1959.86 3827.57 1959.64 3827.57Z" fill="white"/>
<path d="M1849.84 3431.83C1821.67 3431.83 1798.76 3408.92 1798.76 3380.76C1798.76 3352.6 1821.67 3329.69 1849.84 3329.69C1878 3329.69 1900.91 3352.6 1900.91 3380.76C1900.91 3408.92 1878 3431.83 1849.84 3431.83ZM1849.84 3350.14C1832.95 3350.14 1819.22 3363.88 1819.22 3380.76C1819.22 3397.64 1832.95 3411.38 1849.84 3411.38C1866.72 3411.38 1880.45 3397.64 1880.45 3380.76C1880.45 3363.88 1866.72 3350.14 1849.84 3350.14Z" fill="white"/>
<path d="M1849.84 3666.2C1821.67 3666.2 1798.76 3643.29 1798.76 3615.13C1798.76 3586.96 1821.67 3564.05 1849.84 3564.05C1878 3564.05 1900.91 3586.96 1900.91 3615.13C1900.91 3643.29 1878 3666.2 1849.84 3666.2ZM1849.84 3584.51C1832.95 3584.51 1819.22 3598.24 1819.22 3615.13C1819.22 3632.01 1832.95 3645.74 1849.84 3645.74C1866.72 3645.74 1880.45 3632.01 1880.45 3615.13C1880.45 3598.24 1866.72 3584.51 1849.84 3584.51Z" fill="white"/>
</svg>
