<svg width="3894" height="3894" viewBox="0 0 3894 3894" fill="none" xmlns="http://www.w3.org/2000/svg">
<path d="M1947 3882.87C2498.26 3882.87 2995.7 3652.46 3348.27 3282.69C3141.13 3024.29 2824.88 2856.69 2467.38 2853.4C2461.35 2853.35 2455.3 2853.32 2449.22 2853.32H1906.16C1737.47 2853.32 1590.48 2874.25 1460.79 2912.34C1156.02 3001.84 923.682 3233.53 819.857 3521.04C1137.32 3748.77 1526.49 3882.87 1947 3882.87Z" fill="white"/>
<path d="M1947 3893.1C1740.1 3893.1 1536.42 3860.79 1341.61 3797.08C1153.18 3735.45 975.631 3645.37 813.894 3529.35C810.175 3526.68 808.681 3521.87 810.235 3517.57C836.333 3445.29 870.693 3376.02 912.358 3311.66C954.025 3247.31 1002.98 3187.89 1057.87 3135.07C1113.52 3081.52 1175.3 3034.72 1241.5 2995.95C1309.41 2956.19 1382.22 2924.75 1457.9 2902.53C1524.09 2883.09 1594.6 2868.25 1667.48 2858.41C1742.8 2848.24 1823.1 2843.09 1906.16 2843.09H2449.21C2455.33 2843.09 2461.47 2843.12 2467.47 2843.17C2555.94 2843.99 2643.98 2854.89 2729.12 2875.59C2811.83 2895.69 2892.46 2925.18 2968.77 2963.23C3043.6 3000.53 3114.65 3046.25 3179.95 3099.11C3244.71 3151.54 3304.03 3211.15 3356.25 3276.29C3359.45 3280.29 3359.2 3286.04 3355.67 3289.75C3267.07 3382.67 3168.93 3467.15 3063.98 3540.84C2958.08 3615.19 2844.45 3679.11 2726.24 3730.82C2605.84 3783.48 2479.61 3823.95 2351.04 3851.1C2219.05 3878.97 2083.11 3893.1 1947 3893.1ZM832.135 3517.24C1159.02 3749.78 1544.35 3872.64 1947 3872.64C2475.78 3872.64 2968.21 3663.01 3334.65 3282.11C3120.49 3019.13 2804.88 2866.73 2467.28 2863.63C2461.35 2863.57 2455.27 2863.55 2449.21 2863.55H1906.16C1744.97 2863.55 1596.09 2883.26 1463.67 2922.15C1174.25 3007.15 938.689 3229.31 832.135 3517.24Z" fill="#212121"/>
<path d="M2258.12 2986.23C2258.12 3140.23 1726.78 3166.07 1726.78 2986.23V2561.17H2258.12L2258.12 2986.23Z" fill="white"/>
<path d="M1977.1 3121.84C1908.49 3121.84 1845.59 3110.78 1800 3090.7C1745.41 3066.66 1716.55 3030.54 1716.55 2986.23V2561.17C1716.55 2555.52 1721.13 2550.94 1726.78 2550.94H2258.12C2263.77 2550.94 2268.35 2555.52 2268.35 2561.17V2986.23C2268.35 3008.24 2259.08 3028.62 2240.79 3046.81C2224.74 3062.78 2201.96 3076.78 2173.08 3088.4C2120.29 3109.65 2048.85 3121.84 1977.1 3121.84ZM1737.01 2571.39V2986.23C1737.01 3022.32 1760.98 3051.17 1808.24 3071.98C1851.3 3090.94 1911.26 3101.38 1977.1 3101.38C2046.34 3101.38 2114.98 3089.73 2165.45 3069.42C2191.76 3058.83 2212.26 3046.34 2226.37 3032.31C2240.65 3018.1 2247.89 3002.6 2247.89 2986.23V2571.39H1737.01Z" fill="#212121"/>
<path d="M2108.9 2437.23L2476.94 2437.44C2630.83 2437.53 2755.66 2312.86 2755.75 2158.97L2756.06 1631.32L2109.37 1630.94L2108.9 2437.23Z" fill="#212121"/>
<path d="M2477.11 2447.67C2477.05 2447.67 2477 2447.67 2476.94 2447.67L2108.89 2447.46C2103.24 2447.45 2098.66 2442.87 2098.67 2437.22L2099.14 1630.93C2099.14 1628.22 2100.22 1625.62 2102.14 1623.7C2104.06 1621.78 2106.66 1620.71 2109.37 1620.71C2109.37 1620.71 2109.37 1620.71 2109.37 1620.71L2756.06 1621.09C2761.71 1621.09 2766.29 1625.67 2766.28 1631.32L2765.98 2158.97C2765.93 2236.13 2735.84 2308.65 2681.25 2363.18C2626.7 2417.67 2554.2 2447.67 2477.11 2447.67ZM2119.13 2427L2476.95 2427.21C2476.99 2427.21 2477.06 2427.21 2477.11 2427.21C2625.05 2427.21 2745.43 2306.92 2745.52 2158.96L2745.82 1641.54L2119.59 1641.17L2119.13 2427Z" fill="#212121"/>
<path d="M2165.5 2649.72C1992.28 2683.17 1812.1 2682.61 1646.38 2652.02C1442.35 2614.35 1294.65 2435.78 1294.77 2228.29L1295.12 1628.08C1295.26 1390.18 1488.23 1197.43 1726.13 1197.57L2082.13 1197.78C2320.03 1197.92 2512.77 1390.89 2512.63 1628.79L2512.28 2227.45C2512.16 2432.88 2367.21 2610.77 2165.5 2649.72Z" fill="white"/>
<path d="M1899.52 2685.16C1813.67 2685.16 1727.92 2677.47 1644.53 2662.07C1435.81 2623.55 1284.41 2441.12 1284.54 2228.29L1284.89 1628.08C1284.93 1568.55 1296.62 1510.8 1319.65 1456.44C1341.89 1403.94 1373.72 1356.8 1414.24 1316.32C1454.76 1275.85 1501.93 1244.08 1554.46 1221.9C1608.77 1198.97 1666.44 1187.34 1725.87 1187.34C1725.96 1187.34 1726.05 1187.34 1726.14 1187.34L2082.14 1187.55C2141.66 1187.59 2199.41 1199.28 2253.77 1222.31C2306.27 1244.55 2353.41 1276.38 2393.89 1316.9C2434.36 1357.42 2466.13 1404.6 2488.31 1457.12C2511.27 1511.51 2522.9 1569.27 2522.87 1628.8L2522.52 2227.45C2522.49 2279.08 2513.57 2329.77 2496.03 2378.1C2478.94 2425.19 2454.17 2468.72 2422.4 2507.5C2390.58 2546.33 2352.79 2579.12 2310.06 2604.95C2266.07 2631.54 2218.09 2649.98 2167.44 2659.76C2079.78 2676.69 1989.6 2685.16 1899.52 2685.16ZM1725.87 1207.8C1613.64 1207.8 1508.11 1251.48 1428.69 1330.8C1349.22 1410.18 1305.41 1515.76 1305.35 1628.09L1305 2228.3C1304.88 2431.26 1449.23 2605.22 1648.24 2641.96C1816.65 2673.04 1994.84 2672.26 2163.56 2639.68C2359.58 2601.83 2501.94 2428.46 2502.06 2227.44L2502.41 1628.79C2502.47 1516.46 2458.79 1410.83 2379.41 1331.36C2300.03 1251.88 2194.45 1208.08 2082.12 1208.01L1726.13 1207.8C1726.04 1207.8 1725.95 1207.8 1725.87 1207.8Z" fill="#212121"/>
<path d="M2489.07 2135.53L2632.27 2135.6C2747.98 2135.67 2841.86 2041.9 2841.92 1926.19C2841.99 1810.49 2748.22 1716.66 2632.51 1716.6L2489.32 1716.53" fill="white"/>
<path d="M2632.39 2145.83C2632.35 2145.83 2632.31 2145.83 2632.26 2145.83L2489.07 2145.76C2483.42 2145.76 2478.84 2141.18 2478.84 2135.53C2478.85 2129.88 2483.42 2125.31 2489.07 2125.31C2489.07 2125.31 2489.07 2125.31 2489.08 2125.31L2632.27 2125.38C2632.31 2125.38 2632.35 2125.38 2632.39 2125.38C2685.58 2125.38 2735.59 2104.68 2773.23 2067.08C2810.9 2029.45 2831.66 1979.42 2831.7 1926.19C2831.73 1872.96 2811.02 1822.91 2773.4 1785.26C2735.78 1747.61 2685.74 1726.86 2632.51 1726.83L2489.31 1726.76C2483.66 1726.75 2479.09 1722.17 2479.09 1716.52C2479.09 1710.88 2483.67 1706.3 2489.32 1706.3C2489.32 1706.3 2489.32 1706.3 2489.32 1706.3L2632.52 1706.37C2691.22 1706.4 2746.39 1729.29 2787.87 1770.8C2829.36 1812.32 2852.19 1867.51 2852.15 1926.2C2852.12 1984.89 2829.22 2040.07 2787.69 2081.55C2746.19 2123.01 2691.04 2145.83 2632.39 2145.83Z" fill="#212121"/>
<path d="M2632.39 2044.62C2632.37 2044.62 2632.35 2044.62 2632.32 2044.62L2613.61 2044.6C2607.96 2044.6 2603.38 2040.02 2603.39 2034.37C2603.39 2028.72 2607.97 2024.15 2613.62 2024.15C2613.62 2024.15 2613.62 2024.15 2613.62 2024.15L2632.33 2024.16C2632.35 2024.16 2632.37 2024.16 2632.39 2024.16C2686.45 2024.16 2730.45 1980.2 2730.48 1926.13C2730.49 1899.99 2720.29 1875.38 2701.76 1856.83C2683.22 1838.28 2658.6 1828.06 2632.45 1828.04L2613.74 1828.03C2608.09 1828.03 2603.51 1823.45 2603.51 1817.8C2603.52 1812.15 2608.1 1807.58 2613.74 1807.58C2613.75 1807.58 2613.75 1807.58 2613.75 1807.58L2632.46 1807.59C2664.08 1807.61 2693.83 1819.96 2716.23 1842.37C2738.63 1864.79 2750.95 1894.54 2750.94 1926.14C2750.92 1957.76 2738.56 1987.51 2716.13 2009.91C2693.72 2032.29 2663.98 2044.61 2632.39 2044.62Z" fill="#212121"/>
<path d="M1597.07 1893C1619.39 1854.88 1606.58 1805.88 1568.46 1783.55C1530.34 1761.23 1481.34 1774.03 1459.02 1812.16C1436.69 1850.28 1449.5 1899.28 1487.62 1921.6C1525.74 1943.93 1574.74 1931.12 1597.07 1893Z" fill="#212121"/>
<path d="M2075.95 1909.09C2107.19 1877.86 2107.18 1827.21 2075.95 1795.97C2044.71 1764.73 1994.06 1764.73 1962.82 1795.97C1931.59 1827.21 1931.59 1877.86 1962.83 1909.1C1994.06 1940.33 2044.71 1940.33 2075.95 1909.09Z" fill="#212121"/>
<path d="M1799.72 2152.61C1799.66 2152.61 1799.59 2152.61 1799.53 2152.61L1697.92 2150.71C1692.27 2150.6 1687.78 2145.94 1687.88 2140.29C1690.51 1999.24 1739.54 1874.84 1741.62 1869.61C1743.72 1864.36 1749.67 1861.81 1754.91 1863.9C1760.16 1865.99 1762.72 1871.94 1760.62 1877.19C1760.14 1878.41 1713.32 1997.33 1708.61 2130.45L1799.91 2132.15C1805.56 2132.26 1810.05 2136.92 1809.95 2142.57C1809.84 2148.15 1805.28 2152.61 1799.72 2152.61Z" fill="#212121"/>
<path d="M1767.87 2323.21C1712.47 2323.21 1672.46 2313.18 1670.39 2312.65C1664.91 2311.25 1661.61 2305.68 1663.01 2300.2C1664.41 2294.73 1669.98 2291.44 1675.45 2292.83C1676.05 2292.98 1736.25 2308.01 1809.27 2300.73C1881.53 2293.53 1941.35 2253.75 1941.94 2253.35C1946.63 2250.2 1952.98 2251.43 1956.14 2256.12C1959.29 2260.8 1958.06 2267.15 1953.38 2270.31C1950.79 2272.06 1888.85 2313.36 1811.3 2321.09C1796.12 2322.6 1781.52 2323.21 1767.87 2323.21Z" fill="#212121"/>
<path d="M2070.49 2088.87C2068.91 2088.87 2067.3 2088.5 2065.8 2087.72C2060.78 2085.12 2058.82 2078.95 2061.41 2073.94L2103.03 1993.47C2105.63 1988.46 2111.8 1986.49 2116.82 1989.09C2121.83 1991.68 2123.8 1997.85 2121.2 2002.87L2079.58 2083.33C2077.76 2086.85 2074.19 2088.87 2070.49 2088.87Z" fill="#212121"/>
<path d="M2120.66 2089.8C2119.08 2089.8 2117.47 2089.43 2115.97 2088.66C2110.95 2086.06 2108.99 2079.89 2111.58 2074.87L2153.2 1994.41C2155.8 1989.39 2161.97 1987.43 2166.99 1990.02C2172.01 1992.62 2173.97 1998.79 2171.37 2003.81L2129.75 2084.27C2127.94 2087.78 2124.36 2089.8 2120.66 2089.8Z" fill="#212121"/>
<path d="M2170.83 2090.74C2169.25 2090.74 2167.64 2090.37 2166.14 2089.59C2161.12 2087 2159.16 2080.82 2161.76 2075.81L2203.37 1995.35C2205.97 1990.33 2212.14 1988.37 2217.16 1990.96C2222.18 1993.56 2224.14 1999.73 2221.54 2004.74L2179.93 2085.21C2178.11 2088.72 2174.53 2090.74 2170.83 2090.74Z" fill="#212121"/>
<path d="M1514.13 2078.48C1510.29 2078.48 1506.61 2076.31 1504.87 2072.61L1466.28 1990.65C1463.88 1985.54 1466.07 1979.45 1471.18 1977.04C1476.29 1974.64 1482.38 1976.83 1484.79 1981.94L1523.38 2063.89C1525.78 2069.01 1523.59 2075.1 1518.48 2077.51C1517.07 2078.17 1515.59 2078.48 1514.13 2078.48Z" fill="#212121"/>
<path d="M1463.96 2077.55C1460.12 2077.55 1456.44 2075.38 1454.7 2071.68L1416.11 1989.72C1413.7 1984.61 1415.9 1978.51 1421.01 1976.11C1426.12 1973.7 1432.21 1975.89 1434.62 1981L1473.21 2062.96C1475.61 2068.07 1473.42 2074.17 1468.31 2076.57C1466.9 2077.23 1465.42 2077.55 1463.96 2077.55Z" fill="#212121"/>
<path d="M1413.79 2076.61C1409.95 2076.61 1406.27 2074.44 1404.53 2070.74L1365.94 1988.78C1363.53 1983.67 1365.72 1977.58 1370.84 1975.17C1375.95 1972.76 1382.04 1974.96 1384.45 1980.07L1423.04 2062.02C1425.44 2067.13 1423.25 2073.23 1418.14 2075.63C1416.73 2076.3 1415.25 2076.61 1413.79 2076.61Z" fill="#212121"/>
<path d="M1649.13 1724.65H1407.05C1377.75 1724.65 1353.99 1700.89 1353.99 1671.59C1353.99 1642.29 1377.75 1618.53 1407.05 1618.53H1649.13C1678.44 1618.53 1702.19 1642.29 1702.19 1671.59C1702.19 1700.89 1678.44 1724.65 1649.13 1724.65Z" fill="#212121"/>
<path d="M2140.46 1724.65H1898.38C1869.08 1724.65 1845.32 1700.89 1845.32 1671.59C1845.32 1642.29 1869.07 1618.53 1898.38 1618.53H2140.46C2169.76 1618.53 2193.52 1642.29 2193.52 1671.59C2193.52 1700.89 2169.76 1724.65 2140.46 1724.65Z" fill="#212121"/>
<path d="M2627.83 1307.81C2696.75 1237.94 2721.65 1130.82 2680.8 1033.61C2632.45 918.575 2503.11 855.63 2382.78 888.655C2342.11 899.816 2307.14 920.143 2278.72 946.418C2265.65 894.693 2236.35 846.645 2191.28 810.98C2093.49 733.595 1956.16 740.802 1866.71 821.876C1843.73 796.473 1815.32 775.271 1781.95 760.55C1654.89 704.49 1506.44 762.058 1450.39 889.116C1444.58 902.287 1440.13 915.7 1436.72 929.199C1392.73 914.001 1343.53 909.975 1291.82 923.323C1192.39 948.993 1116.96 1034.5 1105 1136.49C1095.93 1213.85 1122.23 1284.92 1169.58 1336.38C1091.44 1372.73 1037.41 1452.21 1038.67 1544.38C1040.38 1669.1 1146.87 1767.18 1271.61 1767.25L1295.04 1767.27L1295.12 1629.12C1295.22 1453.7 1437.51 1311.58 1612.92 1311.68L2086.13 1311.96C2236.27 1312.05 2358.02 1433.39 2358.82 1583.32C2359.2 1656.5 2415.9 1716.73 2489.08 1716.77L2503.73 1716.78C2677.53 1718.9 2754.61 1755.96 2754.61 1755.96C2817.38 1700.57 2842.13 1617.01 2842.17 1555.63C2842.24 1429.51 2749.06 1325.48 2627.83 1307.81Z" fill="#212121"/>
<path d="M1295.04 1777.5C1295.04 1777.5 1295.04 1777.5 1295.03 1777.5L1271.6 1777.48C1139.28 1777.4 1030.21 1672.9 1028.45 1544.52C1027.81 1498 1040.71 1452.84 1065.75 1413.91C1087.64 1379.89 1117.68 1352.18 1153.17 1333.16C1132.43 1308.22 1116.73 1280.1 1106.44 1249.4C1094.16 1212.8 1090.26 1174.41 1094.84 1135.3C1107.26 1029.4 1185.39 940.237 1289.27 913.419C1336.29 901.279 1383.47 902.211 1429.68 916.169C1432.88 905.288 1436.69 894.837 1441.03 884.987C1469.25 821.035 1520.68 771.897 1585.85 746.626C1651.02 721.354 1722.13 722.975 1786.08 751.191C1816.7 764.699 1844.02 783.682 1867.43 807.691C1911.68 770.607 1967.41 749.06 2025.47 746.785C2087.64 744.345 2148.78 764.299 2197.63 802.958C2238.65 835.418 2268.33 878.454 2284.15 928.153C2312.34 905.121 2344.54 888.543 2380.08 878.791C2440.66 862.161 2505.72 868.421 2563.26 896.412C2620.79 924.399 2665.89 971.716 2690.23 1029.65C2728.86 1121.56 2712.04 1226.09 2647.89 1301.09C2702.08 1313.07 2751.36 1342.18 2788.19 1384.32C2829.64 1431.73 2852.44 1492.58 2852.4 1555.64C2852.38 1589.97 2844.93 1627.67 2831.43 1661.8C2815.52 1702.02 2791.3 1737.23 2761.38 1763.62C2758.3 1766.34 2753.89 1766.96 2750.18 1765.17C2749.44 1764.82 2672.48 1729.08 2503.67 1727.01L2489.08 1727C2451.12 1726.98 2415.68 1711.91 2389.3 1684.58C2363.25 1657.59 2348.8 1621.65 2348.59 1583.38C2347.83 1439.44 2230.09 1322.27 2086.13 1322.19L1612.92 1321.91C1612.87 1321.91 1612.79 1321.91 1612.74 1321.91C1443.31 1321.91 1305.45 1459.68 1305.35 1629.12L1305.27 1767.27C1305.26 1772.92 1300.69 1777.5 1295.04 1777.5ZM1354.79 925.431C1334.69 925.431 1314.52 928.028 1294.38 933.227C1198.62 957.949 1126.6 1040.11 1115.16 1137.69C1106.94 1207.84 1129.52 1277.74 1177.11 1329.46C1179.32 1331.86 1180.25 1335.17 1179.62 1338.37C1178.98 1341.57 1176.86 1344.28 1173.9 1345.66C1096.81 1381.51 1047.75 1459.46 1048.9 1544.24C1050.51 1661.5 1150.42 1756.95 1271.61 1757.03L1284.82 1757.03L1284.89 1629.12C1284.94 1541.54 1319.09 1459.23 1381.05 1397.35C1442.96 1335.51 1525.24 1301.46 1612.74 1301.46C1612.8 1301.46 1612.86 1301.46 1612.93 1301.46L2086.14 1301.73C2161.46 1301.78 2232.33 1331.07 2285.7 1384.2C2339.05 1437.32 2368.65 1508.01 2369.05 1583.27C2369.42 1652.36 2422.14 1706.51 2489.09 1706.55L2503.74 1706.56C2503.78 1706.56 2503.82 1706.56 2503.86 1706.56C2652.09 1708.36 2730.57 1735.11 2752.6 1743.96C2811 1689.26 2831.91 1608.88 2831.94 1555.62C2832.01 1437.21 2743.63 1335.02 2626.35 1317.93C2622.54 1317.37 2619.36 1314.72 2618.13 1311.06C2616.91 1307.4 2617.84 1303.37 2620.55 1300.62C2689.29 1230.93 2709.24 1127.68 2671.37 1037.57C2624.65 926.393 2501.74 866.615 2385.49 898.52C2347.84 908.853 2314.25 927.495 2285.67 953.929C2283.02 956.379 2279.27 957.252 2275.81 956.225C2272.35 955.199 2269.69 952.425 2268.81 948.926C2255.67 896.958 2226.67 852.031 2184.93 819.002C2092.18 745.605 1961.24 750.001 1873.58 829.456C1871.57 831.278 1868.92 832.223 1866.21 832.093C1863.5 831.959 1860.95 830.752 1859.13 828.739C1836.2 803.389 1808.84 783.596 1777.82 769.909C1718.87 743.9 1653.32 742.405 1593.24 765.701C1533.16 788.997 1485.75 834.293 1459.75 893.246C1454.48 905.188 1450.07 918.128 1446.64 931.705C1445.94 934.481 1444.1 936.837 1441.58 938.199C1439.06 939.56 1436.09 939.803 1433.38 938.867C1407.47 929.913 1381.19 925.431 1354.79 925.431Z" fill="#212121"/>
<path d="M1947 3882.87C2530.23 3882.87 3053.21 3624.94 3408.13 3216.93C3309.29 3109.66 3186.35 3021.46 3055.6 2958.56C2868.48 2868.55 2569.87 2844.95 2280.01 2843.9C2269.03 2843.86 2259.67 2851.86 2258.12 2862.73C2250.4 2916.71 2202.47 3060.52 1982.84 3056.5C1763.21 3052.49 1728.85 2930.28 1726.78 2874.53C1726.3 2861.57 1714.94 2851.84 1702.07 2853.5C1506.82 2878.8 1102.53 2968.39 986.67 3033.13C948.769 3054.31 914.116 3077.46 882.693 3102.33C776.577 3173.18 694.831 3277.93 641.317 3376.25C985.564 3690.91 1443.86 3882.87 1947 3882.87Z" fill="white"/>
<path d="M1947 3893.1C1699.69 3893.1 1458.73 3847.33 1230.81 3757.07C1121.07 3713.61 1014.61 3659.69 914.37 3596.82C815.187 3534.61 720.996 3462.93 634.416 3383.8C630.944 3380.62 630.084 3375.49 632.333 3371.36C695.205 3255.85 781.968 3157.38 876.669 3094.05C908.638 3068.78 943.965 3045.28 981.68 3024.21C1053.15 2984.27 1219.44 2940.89 1312.21 2918.58C1448.51 2885.81 1601.03 2856.28 1700.76 2843.36C1709.7 2842.2 1718.76 2844.87 1725.61 2850.67C1732.51 2856.51 1736.66 2865.07 1737 2874.15C1737.84 2896.7 1744.62 2940.14 1780.62 2977.85C1822.35 3021.56 1890.45 3044.58 1983.03 3046.28C2074.72 3047.96 2145.22 3023.74 2192.56 2974.29C2234.23 2930.77 2245.2 2880.76 2247.99 2861.29C2250.24 2845.52 2263.96 2833.67 2279.93 2833.67C2279.97 2833.67 2280 2833.67 2280.04 2833.67C2645.83 2834.99 2900.97 2872.83 3060.03 2949.34C3195.68 3014.59 3318.65 3104.73 3415.65 3210C3419.18 3213.83 3419.27 3219.71 3415.85 3223.65C3326.72 3326.11 3226.6 3419.51 3118.28 3501.28C3009.12 3583.67 2891.1 3654.62 2767.5 3712.18C2641.61 3770.79 2509.11 3815.88 2373.68 3846.18C2234.49 3877.31 2090.94 3893.1 1947 3893.1ZM654.167 3374.11C1008.89 3695.67 1467.68 3872.64 1947 3872.64C2501.4 3872.64 3028.39 3633.85 3394.36 3217.14C3300.08 3116.63 3181.6 3030.52 3051.17 2967.78C2894.91 2892.62 2642.65 2855.44 2279.97 2854.13C2279.96 2854.13 2279.94 2854.13 2279.93 2854.13C2274.08 2854.13 2269.06 2858.44 2268.24 2864.18C2265.18 2885.62 2253.11 2940.63 2207.34 2988.44C2183.91 3012.91 2154.9 3031.96 2121.12 3045.05C2081.54 3060.39 2034.94 3067.68 1982.65 3066.73C1742.19 3062.33 1718.19 2918.8 1716.56 2874.91C1716.43 2871.51 1714.95 2868.45 1712.4 2866.29C1709.88 2864.16 1706.68 2863.22 1703.39 2863.65C1501.62 2889.79 1102.5 2980.12 991.66 3042.06C954.769 3062.68 920.243 3085.65 889.042 3110.35C888.826 3110.52 888.603 3110.68 888.374 3110.83C798.161 3171.07 715.22 3264.36 654.167 3374.11Z" fill="#212121"/>
<path d="M610.061 3347.05C828.475 3555.67 1095.68 3713.58 1392.76 3802.21C1409.65 3621.46 1594.03 2843.44 1594.03 2843.44C889.639 2893.53 670.296 3205.84 610.061 3347.05Z" fill="#212121"/>
<path d="M1392.76 3812.44C1391.78 3812.44 1390.79 3812.3 1389.83 3812.01C1242.3 3768 1099.95 3706.24 966.751 3628.46C835.495 3551.82 713.11 3459.62 602.996 3354.44C599.914 3351.5 598.981 3346.95 600.653 3343.03C613.936 3311.89 638.863 3263.44 682.185 3209.43C728.643 3151.51 786.701 3098.74 854.748 3052.6C938.187 2996.03 1037.01 2949.28 1148.48 2913.66C1278.77 2872.02 1428.44 2844.96 1593.31 2833.24C1596.56 2833 1599.72 2834.33 1601.83 2836.81C1603.93 2839.29 1604.74 2842.63 1603.99 2845.8C1602.14 2853.57 1419.58 3625.19 1402.94 3803.16C1402.66 3806.21 1401.02 3808.97 1398.48 3810.69C1396.77 3811.84 1394.77 3812.44 1392.76 3812.44ZM622.299 3344.57C837.953 3549.03 1100.91 3702.4 1383.88 3788.85C1405.48 3602.27 1556.05 2959.88 1580.87 2854.67C1283.26 2877.49 1042.89 2949.75 866.228 3069.54C716.577 3171.01 649.79 3282.94 622.299 3344.57Z" fill="#212121"/>
<path d="M3423.84 3198.47C3303.49 3046.03 3018.82 2836.39 2383.51 2836.39C2383.51 2836.39 2570.21 3536.21 2608.94 3766.7C2928.23 3650.53 3208.21 3452.67 3423.84 3198.47Z" fill="#212121"/>
<path d="M2608.94 3776.93C2607.15 3776.93 2605.37 3776.46 2603.79 3775.53C2601.17 3774.01 2599.36 3771.39 2598.86 3768.39C2560.65 3541.01 2375.49 2846.02 2373.63 2839.02C2372.81 2835.95 2373.46 2832.68 2375.4 2830.16C2377.33 2827.64 2380.33 2826.16 2383.51 2826.16C2667.71 2826.16 2909.05 2868.12 3100.84 2950.87C3177.71 2984.05 3246.77 3023.95 3306.08 3069.47C3354.82 3106.88 3397.14 3148.15 3431.86 3192.13C3434.88 3195.96 3434.79 3201.38 3431.64 3205.09C3212.38 3463.56 2929.11 3661.09 2612.44 3776.31C2611.31 3776.72 2610.12 3776.93 2608.94 3776.93ZM2396.82 2846.65C2421.97 2941.47 2577.63 3531.46 2616.93 3752.86C2923.03 3639.26 3197.04 3447.79 3410.57 3198.27C3302.01 3064.79 3028.96 2849.63 2396.82 2846.65Z" fill="#212121"/>
<path d="M1645.9 2846.98C1644.95 2804.65 1592.17 2785.94 1564.78 2818.23L1106.09 3358.84C1091.06 3376.54 1087.59 3401.32 1097.16 3422.47L1246.31 3752.07C1380.45 3804.18 1521.83 3841.72 1668.53 3862.85L1645.9 2846.98Z" fill="#212121"/>
<path d="M1668.53 3873.08C1668.05 3873.08 1667.56 3873.05 1667.07 3872.98C1521.76 3852.04 1378.95 3814.57 1242.61 3761.6C1240.11 3760.63 1238.1 3758.73 1236.99 3756.29L1087.84 3426.69C1076.7 3402.06 1080.8 3372.83 1098.29 3352.22L1556.98 2811.61C1572.23 2793.63 1596.45 2787.11 1618.67 2794.99C1640.9 2802.86 1655.6 2823.18 1656.12 2846.75V2846.76L1678.76 3862.63C1678.83 3865.63 1677.57 3868.52 1675.32 3870.51C1673.43 3872.18 1671.02 3873.08 1668.53 3873.08ZM1253.91 3744.04C1383.89 3794.21 1519.75 3830.15 1658.04 3850.97L1635.67 2847.21C1635.26 2829 1623.09 2818.26 1611.84 2814.27C1600.58 2810.28 1584.36 2810.96 1572.58 2824.85L1113.88 3365.45C1101.48 3380.07 1098.57 3400.79 1106.48 3418.26L1253.91 3744.04Z" fill="#212121"/>
<path d="M2395.27 2818.23C2367.88 2785.94 2315.1 2804.65 2314.16 2846.98L2291.75 3852.24C2444.51 3824.78 2590.98 3779.31 2729.04 3718.27L2862.89 3422.47C2872.47 3401.32 2868.99 3376.54 2853.97 3358.84L2395.27 2818.23Z" fill="#212121"/>
<path d="M2291.75 3862.47C2289.33 3862.47 2286.97 3861.61 2285.1 3860.01C2282.77 3858.02 2281.46 3855.08 2281.53 3852.01L2303.93 2846.76C2304.45 2823.18 2319.15 2802.86 2341.38 2794.98C2363.6 2787.11 2387.81 2793.63 2403.07 2811.61L2861.76 3352.22C2879.25 3372.83 2883.35 3402.06 2872.21 3426.69L2738.35 3722.48C2737.32 3724.78 2735.47 3726.6 2733.17 3727.62C2592.43 3789.86 2444.53 3835.17 2293.56 3862.31C2292.96 3862.41 2292.35 3862.47 2291.75 3862.47ZM2360.57 2812.15C2356.14 2812.15 2351.91 2812.96 2348.21 2814.27C2336.96 2818.25 2324.79 2829 2324.38 2847.21L2302.26 3839.92C2446.07 3813.08 2586.99 3769.56 2721.33 3710.49L2853.57 3418.25C2861.47 3400.79 2858.57 3380.07 2846.17 3365.45L2387.47 2824.85C2379.56 2815.52 2369.64 2812.15 2360.57 2812.15Z" fill="#212121"/>
<path d="M1235.22 3737.77C1231.32 3737.77 1227.6 3735.53 1225.89 3731.76L1087.84 3426.69C1076.7 3402.06 1080.8 3372.83 1098.29 3352.22L1509.17 2867.96C1512.83 2863.65 1519.28 2863.12 1523.59 2866.78C1527.9 2870.43 1528.43 2876.89 1524.77 2881.19L1113.89 3365.45C1101.48 3380.07 1098.58 3400.79 1106.48 3418.26L1244.53 3723.32C1246.86 3728.47 1244.58 3734.53 1239.43 3736.86C1238.06 3737.48 1236.63 3737.77 1235.22 3737.77Z" fill="white"/>
<path d="M2739.07 3706.33C2737.66 3706.33 2736.22 3706.03 2734.85 3705.41C2729.71 3703.09 2727.42 3697.02 2729.75 3691.88L2853.57 3418.26C2861.47 3400.8 2858.57 3380.07 2846.17 3365.45L2424 2867.9C2420.34 2863.59 2420.87 2857.13 2425.18 2853.48C2429.49 2849.83 2435.94 2850.36 2439.59 2854.66L2861.76 3352.22C2879.25 3372.83 2883.35 3402.06 2872.21 3426.69L2748.39 3700.31C2746.68 3704.09 2742.96 3706.33 2739.07 3706.33Z" fill="white"/>
</svg>
