<svg xmlns="http://www.w3.org/2000/svg" enable-background="new 0 0 110 110" viewBox="0 0 110 110"><path fill="#9dd7ff" d="m100.4 35.7-1.6-.6c-.2-1.1-.6-2.1-1.2-3.1l.7-1.5c.1-.1 0-.3-.1-.4L97.1 29c-.1-.1-.3-.1-.4-.1l-1.5.7c-.9-.6-2-1.1-3.1-1.3l-.6-1.6c-.1-.1-.2-.2-.3-.2h-1.5c-.2 0-.3.1-.3.2l-.6 1.6c-1.1.2-2.2.7-3.1 1.3l-1.5-.6c-.1-.1-.3 0-.4.1l-1.1 1.1c-.1.1-.1.3-.1.4l.7 1.5c-.6.9-1.1 2-1.3 3.1l-1.6.6c-.1.1-.2.2-.2.3v1.5c0 .2.1.3.2.3l1.6.6c.2 1.1.7 2.2 1.3 3.1l-.6 1.4c-.1.1 0 .3.1.4l1.1 1.1c.1.1.3.1.4.1l1.5-.7c.9.6 2 1.1 3.1 1.3l.6 1.6c.1.1.2.2.3.2h1.5c.2 0 .3-.1.3-.2l.6-1.6c1.1-.2 2.2-.7 3.1-1.3l1.5.7c.1.1.3 0 .4-.1l1.1-1.1c.1-.1.1-.3.1-.4l-.7-1.5c.6-.9 1.1-2 1.3-3.1l1.6-.6c.1-.1.2-.2.2-.3V36c-.1-.1-.2-.3-.4-.3zm-9.9 5.6c-2.5 0-4.5-2-4.5-4.5s2-4.5 4.5-4.5 4.5 2 4.5 4.5-2 4.5-4.5 4.5z" class="color113ffb svgShape"/><path fill="#eef9fc" stroke="#333" stroke-linecap="round" stroke-linejoin="round" stroke-miterlimit="10" stroke-width=".5" d="M26.8 53.3s-5.7-1.3-4.6-5.8 11.6-4.6 12-.8" class="colorffffff svgShape colorStroke001466 svgStroke"/><path fill="#eef9fc" stroke="#333" stroke-linecap="round" stroke-linejoin="round" stroke-miterlimit="10" stroke-width=".5" d="m41.3 32.5-22.4 36c-.7 1-2 1.4-3.1.7L8 64.3c-1-.7-1.4-2-.7-3.1l22.4-36c1.8-3 4.4-5.4 7.5-7l6.1-3.2c.5-.3 1.2.1 1.1.7l-.2 6.9c0 3.5-1 6.9-2.9 9.9z" class="colorffffff svgShape colorStroke001466 svgStroke"/><path fill="#eef9fc" stroke="#333" stroke-linecap="round" stroke-linejoin="round" stroke-miterlimit="10" stroke-width=".5" d="m42.6 30-11.2-7c1.6-1.9 3.6-3.5 5.9-4.7l1.2-.6 4.8-2.5c.5-.3 1.2.1 1.1.7l-.2 5.5v1.4c0 2.4-.5 4.9-1.6 7.2z" class="colorffffff svgShape colorStroke001466 svgStroke"/><path fill="#080808" d="m12.2 53.5-4.8 7.7c-.7 1-.3 2.4.7 3.1l7.8 4.9c1 .7 2.4.3 3.1-.7l4.8-7.7-11.6-7.3z" class="color001466 svgShape"/><path fill="#b4a6fe" stroke="#333" stroke-linecap="round" stroke-linejoin="round" stroke-miterlimit="10" stroke-width=".5" d="m10.7 55.9-3.3 5.3c-.7 1-.3 2.4.7 3.1l7.8 4.9c1 .7 2.4.3 3.1-.7l3.3-5.3-11.6-7.3z" class="colorff7757 svgShape colorStroke001466 svgStroke"/><path fill="#080808" d="M44.3 21.2c-1.2 0-2.4-.3-3.4-1-1.1-.7-1.9-1.6-2.4-2.7l4.8-2.5c.5-.3 1.2.1 1.1.7l-.1 5.5z" class="color001466 svgShape"/><path fill="#eef9fc" stroke="#333" stroke-linecap="round" stroke-linejoin="round" stroke-miterlimit="10" stroke-width=".5" d="M28.9 46.5 21 59.3M29.9 38 17.8 57.3M23.8 40.6l-9.1 14.7" class="colorffffff svgShape colorStroke001466 svgStroke"/><path fill="#080808" d="M76.1 38.6c0 3.2-2.6 5.9-5.9 5.9-3.2 0-5.9-2.6-5.9-5.9 0-3.2 2.6-5.9 5.9-5.9 3.3.1 5.9 2.7 5.9 5.9z" class="color001466 svgShape"/><path fill="#eef9fc" stroke="#333" stroke-linecap="round" stroke-linejoin="round" stroke-miterlimit="10" stroke-width=".5" d="m78.9 33-16.6 5.9M46.5 95l1.4-18-3.2 3.6c-3.3 3.8-9.4 2.4-10.8-2.3l-6.6-23" class="colorffffff svgShape colorStroke001466 svgStroke"/><path fill="#080808" stroke="#333" stroke-linecap="round" stroke-linejoin="round" stroke-miterlimit="10" stroke-width=".5" d="M45 70.4c-.1 2.8.3 5.6 1.3 8.5l1.6-1.8c-1.7-1.7-2.5-4-2.9-6.7z" class="color001466 svgShape colorStroke001466 svgStroke"/><path fill="#eef9fc" stroke="#333" stroke-linecap="round" stroke-linejoin="round" stroke-miterlimit="10" stroke-width=".5" d="M77.4 94.7 84 48.2s-12.4-3.9-16.6-3.9c-4.3 0-16.7 3.8-16.7 3.8-1.6.4-2.8 1.5-3.3 3l-7.8 16.3-5.8-16.3" class="colorffffff svgShape colorStroke001466 svgStroke"/><path fill="#eef9fc" stroke="#333" stroke-linecap="round" stroke-linejoin="round" stroke-miterlimit="10" stroke-width=".5" d="M47.9 77.1s-6.5-5.3 0-15.5v-3.7M60.9 47.1c-.2-2.6-1-4.5-2.7-5.6 0 0-4.1.9-6.8-1.7-4.5-4.2 2.9-22.1 9.7-22.7s5.7 13.8 5.7 13.8l.5 6.3c.5 3.1 1.9 6 4.1 8.6" class="colorffffff svgShape colorStroke001466 svgStroke"/><path fill="#080808" d="M58.6 18.1s-.5 12.5 9 16.6c1 .5 1.9.8 2.7 1.1 2.1.8 4.5-.4 5.1-2.6C77 27.4 78.3 16.1 63.8 16c0 0-7-3.2-11.1 1.9-4.7 5.8-.9 9.9-.9 9.9 1.6-4.3 3.9-7.6 6.8-9.7z" class="color001466 svgShape"/><path fill="#eef9fc" stroke="#333" stroke-linecap="round" stroke-linejoin="round" stroke-miterlimit="10" stroke-width=".5" d="M64 32.9c.6-1.4 2.2-2 3.6-1.4 1.4.6 2 2.2 1.4 3.6-.6 1.4-2.3 2.1-3.6 1.5M86.5 50.2l14.3 14.7c2.8 2.9 2.9 7.4.3 10.4-6.7 6-13.7 11.8-21.5 11.4-4-1-6.3-2.8-6.3-2.8-3.4-1.9-3.5-3.6-2-2.9-2.3-1.7-1.9-3.2-.2-2-2.4-1.9-1.6-3.5.2-1.7.2.2.5.5.8.7-2.8-2.5-1.9-4.4 0-2.3 2.2 2.5 6.1 3.9 6.1 3.9s-2.2-3.5-1.3-4c1.4-.8 3.8 1.5 4.9 5.1L92.9 72l-13-9.8" class="colorffffff svgShape colorStroke001466 svgStroke"/><path fill="#080808" d="M69.4 85.4c-.3 1-1.3 1.6-2.4 1.3-1-.3-1.6-1.4-1.3-2.4l3.7 1.1z" class="color001466 svgShape"/><path fill="#70dffd" d="M56.7 59.2c.1-.6.3-1.1.4-1.7 2.7-9.1 12.6-14.6 21.8-12 9.6 2.7 15.1 12.6 12.3 22.1-.2.5-.3 1-.5 1.5-3.2 8.1-12.4 12-20.7 9.6l-.9-.3c-8.4-2.4-14-10.7-12.4-19.2z" class="colorfdb870 svgShape"/><path fill="#9dd7ff" d="M69.2 85.5c1.7.5 3.6-.4 4.2-2.2.2-.8.4-2.3.5-3.9-1.3-.1-2.6-.3-3.9-.7l-.9-.3c-1.3-.4-2.5-.9-3.7-1.6-.8 1.4-1.4 2.7-1.7 3.6-.5 1.7.6 3.5 2.3 4.1l3.2 1z" class="color113ffb svgShape"/><path fill="none" stroke="#fff" stroke-linecap="round" stroke-linejoin="round" stroke-miterlimit="10" stroke-width=".5" d="M63.8 78.1c3.5 2.1 7.1 3.2 10.9 3.2M63.3 79.9c3.5 2.1 7.1 3.2 10.9 3.2" class="colorStrokeffffff svgStroke"/><path fill="#eef9fc" stroke="#333" stroke-linecap="round" stroke-linejoin="round" stroke-miterlimit="10" stroke-width=".5" d="M79.6 86.7c-3.3-.8-6.3-2.8-6.3-2.8-3.4-1.9-3.5-3.6-2-2.9-2.3-1.7-1.9-3.2-.2-2-2.4-1.9-1.6-3.5.2-1.7.2.2.5.5.8.7-2.8-2.5-1.9-4.4 0-2.3 2.2 2.5 6.1 3.9 6.1 3.9s-2.2-3.5-1.3-4c1.4-.8 3.8 1.5 4.9 5.1M85.2 78c2.2 1 3.7 3 4.5 6.1M35.8 56.9l-7.2 2.7M33.6 51c.3-.2.5-.4.7-.6 1.8-1.7 1.6-4.7-.3-6.2h0c-2.7-2.6-4.3-1.7-2.8.4l1.7 2.4s-3.1.4-2.1 3.4" class="colorffffff svgShape colorStroke001466 svgStroke"/><path fill="#eef9fc" stroke="#333" stroke-linecap="round" stroke-linejoin="round" stroke-miterlimit="10" stroke-width=".5" d="M72.2 78s1.4 1.2 2.8 1.6M71 78.9s1.4 1.2 2.8 1.6M71.2 81s1.4 1.2 2.8 1.6" class="colorffffff svgShape colorStroke001466 svgStroke"/><path fill="none" stroke="#333" stroke-linecap="round" stroke-linejoin="round" stroke-miterlimit="10" stroke-width=".5" d="M55.6 28.9c-.6 1.4-1 2.1-1.6 3.6h1.5" class="colorStroke001466 svgStroke"/><path fill="#080808" d="M54 28.9c0 .4-.3.7-.7.7-.4 0-.7-.3-.7-.7 0-.4.3-.7.7-.7.4 0 .7.3.7.7zM58.8 29.8c0 .4-.3.7-.7.7-.4 0-.7-.3-.7-.7 0-.4.3-.7.7-.7.3.1.7.4.7.7z" class="color001466 svgShape"/><path fill="none" stroke="#333" stroke-linecap="round" stroke-linejoin="round" stroke-miterlimit="10" stroke-width=".5" d="M53.1 25.8s1.4-.4 2.3.7M57.6 27s1.4-.4 2.3.7M53.1 35.4s1 1 2.5 0M66.8 34l-1 .6" class="colorStroke001466 svgStroke"/><path fill="none" stroke="#fff" stroke-miterlimit="10" d="M65.9 54.4c-.2 1.5-.3 3 0 4.4s1.1 2.9 2.4 3.5c1.3.6 3 .4 4.3-.2 1.4-.7 2.7-1.9 3-3.4.2-.9-.1-1.9-.9-2.2-.8-.2-1.6.4-2.2 1.1-.8 1-1.6 2.2-1.5 3.5.1 1.2 1.1 2.2 2.2 2.6 1.1.4 2.4.3 3.5 0 1.2-.3 2.3-.8 3.4-1.2.7-.3 1.4-.5 2.2-.5.8 0 1.5.1 2.2.6 1 .7 1.4 2.1 1.1 3.3-.3 1.2-1.2 2.1-2.3 2.7-1.1.5-2.3.7-3.5.7-.7 0-1.4-.1-2.1.1-.7.2-1.3.9-1.2 1.6" class="colorStrokeffffff svgStroke"/><path fill="none" stroke="#333" stroke-linecap="round" stroke-linejoin="round" stroke-miterlimit="10" stroke-width=".5" d="m39.6 67.4 1 3M92.9 72l1-1" class="colorStroke001466 svgStroke"/><path fill="#080808" stroke="#333" stroke-linecap="round" stroke-linejoin="round" stroke-miterlimit="10" stroke-width=".5" d="M58.2 41.6c1.2-.2 2.2-.9 3.1-2-.4 1.5-1 2.4-2.1 2.8l-1-.8z" class="color001466 svgShape colorStroke001466 svgStroke"/></svg>